<!-- icon666.com - MILLIONS vector ICONS FREE --><svg id="Capa_1" enable-background="new 0 0 512 512" viewBox="0 0 512 512" xmlns="http://www.w3.org/2000/svg"><g><path d="m512 256c0 141.38-114.62 256-256 256s-256-114.62-256-256 114.62-256 256-256c24.71 0 48.6 3.5 71.2 10.04 5.59 1.61 11.11 32.365 16.53 34.345 8.96 3.26 17.68 7.02 26.13 11.22 11.26 5.6 22.04-16.945 32.28-9.815 37.1 25.84 67.04 61.26 86.23 102.67 4.08 8.8-34.22 25.748-31.15 35.048 5.54 16.75 51.29 26.382 53.26 44.452.6 5.45 1.02 10.96 1.27 16.51.17 3.82.25 7.66.25 11.53z" fill="#fde42f"></path><g><g><path d="m511.75 244.47c-19.27 6.8-43.92 8.29-75.19-.89l13.54-95.21s15.96-1.82 38.27.09c4.08 8.8 7.68 17.87 10.75 27.17 3.099 9.369-5.747 19.232-3.739 29.042 1.582 7.728 14.231 15.325 15.099 23.288.6 5.45 1.02 10.96 1.27 16.51z" fill="#ce6219"></path><path d="m510.48 227.96c-13.44 5.61-31.01 8.63-53.26 4.72l9.98-56.2s14.24-2.9 31.92-.85c5.54 16.75 9.39 34.26 11.36 52.33z" fill="#ffe0a7"></path></g><path d="m315.181 300.67-62.847-62.847c-40.812-40.812-31.696-105.78 11.399-136.2 8.482-5.996 34.693 17.681 45.695 14.821l55.754-30.714c19.589-5.094 31.7-7.097 46.016 7.219l48.856 48.856c14.316 14.316 9.846 31.786 4.751 51.375l-20.664 57.97c-2.86 11.001 13.244 29.629 7.239 38.12-30.411 43.103-95.379 52.22-136.199 11.4z" fill="#fff9f1"></path><path d="m309.428 116.444c-11.001 2.86 3.161 19.556-5.321 25.552-43.095 30.42-52.211 95.388-11.399 136.2l-40.373-40.373c-40.812-40.812-31.696-105.78 11.399-136.2 8.482-5.996 22.283 5.264 33.284 2.404z" fill="#f9e9d7"></path><path d="m451.382 289.271c-11.529-5.094-22.336-12.374-31.785-21.824-27.255-27.255-36.457-65.658-27.639-100.444.9-3.552-2.364-6.821-5.917-5.925-34.825 8.783-73.263-.451-100.482-27.669-9.449-9.449-16.729-20.256-21.824-31.785 8.482-5.996 18.297-10.644 29.299-13.504l72.15-18.769c19.589-5.094 40.414.569 54.73 14.885l48.856 48.856c14.316 14.316 19.979 35.141 14.885 54.73l-18.769 72.15c-2.861 11.002-7.5 20.809-13.504 29.299z" fill="#ce6219"></path><path d="m460.286 124.609c-14.316-14.316-35.141-19.979-54.73-14.885l-72.15 18.769c-11.001 2.86-20.816 7.508-29.299 13.504-1.503 1.064-2.958 2.161-4.379 3.307-4.981-3.486-9.726-7.451-14.17-11.895-9.449-9.449-16.729-20.256-21.824-31.785 8.482-5.996 18.298-10.644 29.299-13.504l72.15-18.769c19.589-5.094 40.414.569 54.73 14.885z" fill="#ba530d"></path><g><g><circle cx="354.472" cy="138.082" fill="#225b77" r="20.115"></circle><path d="m346.976 156.748c-2.454-.975-4.753-2.462-6.736-4.444-7.857-7.857-7.849-20.589.008-28.446s20.589-7.865 28.446-.008c1.983 1.983 3.469 4.282 4.444 6.736-7.239-2.901-15.836-1.422-21.71 4.452-5.874 5.875-7.353 14.471-4.452 21.71z" fill="#174c60"></path></g><g><circle cx="414.924" cy="198.534" fill="#225b77" r="20.115"></circle><path d="m407.428 217.2c-2.454-.975-4.753-2.462-6.736-4.444-7.857-7.857-7.849-20.589.008-28.446s20.589-7.865 28.446-.008c1.982 1.982 3.469 4.282 4.444 6.736-7.239-2.901-15.836-1.422-21.71 4.452-5.874 5.875-7.353 14.471-4.452 21.71z" fill="#174c60"></path></g></g><path d="m349.542 210.427-6.964-6.964c-8.511-8.511-8.511-22.311 0-30.822 6.366-6.366 16.688-6.366 23.054 0l14.732 14.732c6.366 6.366 6.366 16.688 0 23.054-8.511 8.511-22.31 8.511-30.822 0z" fill="#225b77"></path><path d="m351.882 212.458c-.821-.609-1.601-1.292-2.34-2.031l-6.963-6.963c-8.507-8.507-8.515-22.311-.008-30.818 3.185-3.185 7.361-4.778 11.538-4.778 4.168.008 8.336 1.593 11.521 4.778l11.334 11.334c-3.185-3.185-7.361-4.778-11.521-4.778-4.176 0-8.353 1.593-11.538 4.778-7.768 7.767-8.442 19.93-2.023 28.478z" fill="#174c60"></path><g fill="#fff9f1"><path d="m427.737 144.357-1.61 2.789c-5.089 8.814 1.272 19.833 11.45 19.833h3.22c4.499 0 7.311-4.871 5.062-8.767l-7.999-13.854c-2.25-3.897-7.874-3.897-10.123-.001z"></path><path d="m408.649 125.269-2.789 1.61c-8.814 5.089-19.833-1.272-19.833-11.45v-3.22c0-4.499 4.871-7.311 8.767-5.062l13.854 7.999c3.897 2.249 3.897 7.873.001 10.123z"></path></g><g><path d="m404.64 102.91-95.21 13.53c-15.17-51.68-1.2-85.31 17.77-106.4 5.59 1.61 11.11 3.41 16.53 5.39 4.341 1.579 6.517 18.883 10.742 20.69 4.496 1.923 11.032-11.636 15.388-9.47 11.26 5.6 22.04 12.01 32.28 19.14 5.41 31.59 2.5 57.12 2.5 57.12z" fill="#ba530d"></path><path d="m378.1 67.53c-4.31.11-8.64.71-12.92 1.82l-46.49 12.09c-1.71-34.19 13.72-55.27 25.04-66.01 8.96 3.26 17.68 7.02 26.13 11.22 6.75 14.15 8.32 29.41 8.24 40.88z" fill="#ffe0a7"></path></g></g><path d="m256.487 167.755c-91.847 0-155.812 91.207-124.528 177.562l55.047 151.945 69.481-31.432 69.481 31.432 55.047-151.945c31.284-86.355-32.681-177.562-124.528-177.562z" fill="#ce6219"></path><path d="m177.709 345.317 48.61 134.16-39.31 17.78-55.05-151.94c-31.29-86.36 32.68-177.56 124.53-177.56 7.84 0 15.48.67 22.88 1.93-79.21 13.61-130.27 96.64-101.66 175.63z" fill="#ba530d"></path><path d="m176.477 512h39.21c22.533 0 40.8-18.267 40.8-40.8l7.93-12.398-7.93-9.966h-80.01c-17.442 0-31.582 14.14-31.582 31.582 0 17.442 14.14 31.582 31.582 31.582z" fill="#fff9f1"></path><path d="m336.497 512h-39.21c-22.533 0-40.8-18.267-40.8-40.8v-22.364h80.01c17.442 0 31.582 14.14 31.582 31.582 0 17.442-14.14 31.582-31.582 31.582z" fill="#fff9f1"></path><path d="m179.365 502.748c5.71 5.72 13.61 9.25 22.33 9.25h-25.22c-8.72 0-16.62-3.53-22.33-9.25s-9.25-13.61-9.25-22.33c0-17.45 14.14-31.59 31.58-31.59h25.22c-17.44 0-31.58 14.14-31.58 31.59 0 8.72 3.54 16.61 9.25 22.33z" fill="#f9e9d7"></path><path d="m129.618 4.721c-6.771-6.771-18.004-6.193-23.893 1.358-44.056 56.492-40.106 138.276 11.851 190.232 9.706 9.706 20.454 17.737 31.883 24.093 71.268 39.631 141.327-54.516 83.666-112.178z" fill="#ce6219"></path><g fill="#ba530d"><path d="m230.915 210.622c-20.14 19.07-50.68 26.9-81.45 9.78-11.43-6.35-22.18-14.38-31.89-24.09-51.95-51.95-55.9-133.74-11.85-190.23 5.89-7.55 17.12-8.13 23.9-1.36l4.94 4.94c-27.76 54.13-18.98 122.17 26.35 167.5 9.71 9.71 20.46 17.74 31.89 24.09 13 7.23 25.96 10.01 38.11 9.37z"></path><path d="m281.707 311.984v136.846l-12.61 9.407-12.61-9.407v-122.916c10.63 0 19.95-5.56 25.22-13.93z"></path><path d="m278.948 254.404-8.908-5.143 8.908-5.143c3.241-1.871 4.352-6.016 2.48-9.257-1.871-3.241-6.016-4.352-9.257-2.48l-8.908 5.143v-10.286c0-3.743-3.034-6.776-6.776-6.776-3.743 0-6.777 3.034-6.777 6.776v10.286l-8.908-5.143c-3.241-1.871-7.385-.761-9.257 2.48-1.871 3.241-.761 7.385 2.48 9.257l8.908 5.143-8.908 5.143c-3.241 1.871-4.352 6.016-2.48 9.257s6.016 4.352 9.257 2.48l8.908-5.143v10.286c0 3.743 3.034 6.777 6.777 6.777 3.742 0 6.776-3.034 6.776-6.777v-10.286l8.908 5.143c3.241 1.871 7.385.761 9.257-2.48s.761-7.386-2.48-9.257z"></path><path d="m256.487 333.414c-22.25 0-40.353-18.102-40.353-40.353 0-4.142 3.357-7.5 7.5-7.5s7.5 3.358 7.5 7.5c0 13.979 11.373 25.353 25.353 25.353s25.354-11.374 25.354-25.353c0-4.142 3.357-7.5 7.5-7.5s7.5 3.358 7.5 7.5c0 22.251-18.103 40.353-40.354 40.353z"></path></g><path d="m322.505 511.998h-25.22c-22.53 0-40.8-18.27-40.8-40.8v-22.37h25.22v22.37c0 22.53 18.27 40.8 40.8 40.8z" fill="#f9e9d7"></path></g></svg>