<!-- icon666.com - MILLIONS vector ICONS FREE --><svg id="Capa_1" enable-background="new 0 0 512 512" viewBox="0 0 512 512" xmlns="http://www.w3.org/2000/svg"><g><path d="m436.902 105.874v-.119c0-25.733-20.86-46.593-46.593-46.593-25.733 0-46.593 20.861-46.593 46.593l-35.456 55.456c-7.325 7.325-16.254 12.843-26.081 16.119-19.924 6.641-35.559 22.276-42.2 42.2-3.276 9.827-8.794 18.756-16.119 26.081l-36.768 36.768c-29.604 29.604-44.413 60.818-40.821 107.286h-55.522c-8.413 0-15.282-6.818-15.41-15.201.196 25.499 14.882 46.502 40.41 46.502h30.531l.042-.119h150.801c8.578 0 15.531-6.953 15.531-15.531s-6.953-15.531-15.531-15.531h-46.593l70.142-35.101c14.446-7.223 22.969-21.799 23.044-37.086v87.718c0 8.577 6.953 15.531 15.531 15.531h31.062c8.578 0 15.531-6.954 15.531-15.531 0-8.577-6.954-15.531-15.531-15.531v-206.374h31.062c25.732 0 46.593-20.861 46.593-46.593v-30.944z" fill="#c58254"></path><path d="m7.502 420.966h496.996v31.062h-496.996z" fill="#fff8eb"></path><path d="m7.502 420.966h30v31.062h-30z" fill="#fef0cb"></path><path d="m155.754 389.665c8.206 0 14.915-6.597 14.994-14.803.368-38.514 14.996-66.136 41.343-92.483l36.556-36.555c7.304-7.304 13.003-16.122 16.215-25.939 6.573-20.093 22.275-35.874 42.317-42.554 9.827-3.276 18.756-8.794 26.081-16.119l35.456-55.456c0-21.403 14.431-39.434 34.093-44.896-3.978-1.105-8.17-1.697-12.5-1.697-25.733 0-46.593 20.861-46.593 46.593l-35.456 55.456c-7.325 7.325-16.254 12.843-26.081 16.119-19.923 6.641-35.56 22.278-42.201 42.201-3.276 9.827-8.794 18.756-16.119 26.081l-36.768 36.768c-29.604 29.604-44.413 60.818-40.821 107.286h9.484z" fill="#b7734a"></path><path d="m368.715 405.316v-144.888c-.049-14.333-25-10.424-25-10.424v155.311c0 8.577 6.953 15.531 15.531 15.531h25c-8.577.001-15.531-6.953-15.531-15.53z" fill="#b7734a"></path><path d="m75.339 373.808c-.002.136-.003.273-.002.412 0-.138.001-.275.002-.412z" fill="#606060"></path><path d="m75.337 374.22c0 .082.001.163.002.245-.001-.083-.002-.164-.002-.245z" fill="#3f3f3f"></path><path d="m75.339 374.464c-.001-.082-.002-.163-.002-.245-.001-.139 0-.275.002-.412.086-17.063 5.129-33.576 14.599-47.781l13.832-20.748c4.795-7.192 2.851-16.909-4.341-21.703-7.192-4.794-16.908-2.851-21.702 4.341l-13.832 20.748c-13.081 19.62-19.953 42.478-19.858 66.07.103 25.609 21.102 46.231 46.712 46.231h25c-25.528.001-40.215-21.002-40.41-46.501z" fill="#b7734a"></path><path d="m377.763 183.411c22.151 0 38.404-20.816 33.031-42.306l-20.486-81.943c-25.733 0-46.593 20.861-46.593 46.593v43.608c0 18.804 15.244 34.048 34.048 34.048z" fill="#a86440"></path><path d="m390.309 224.533-82.049-63.322 9.865-91.989 155.331 108.717z" fill="#f55253"></path><path d="m339.155 152.865 6.875-64.112-27.906-19.531-9.865 91.989 82.049 63.322 17.38-9.74-62.784-48.454c-4.128-3.186-6.305-8.289-5.749-13.474z" fill="#d44441"></path><g><path d="m214.912 265.159c13.163-12.072 26.43-26.021 32.184-43.264 5.845-17.538 19.916-31.592 37.443-37.451 8.915-2.995 16.957-7.478 24.125-13.448l74.145 57.223v57.626c0 4.143 3.357 7.5 7.5 7.5s7.5-3.357 7.5-7.5v-56.918l79.312-44.444c4.887-3.995 5.099-8.225.635-12.688l-10.069-7.047c5.05-8.386 7.772-18.06 7.772-27.934v-30.939c0-4.143-3.357-7.5-7.5-7.5h-24.056c-6.715-49.455-74.467-63.096-100.058-20.304l-21.422-14.993c-6.261-3.916-11.3-.232-11.758 5.345l-9.573 89.272c-6.202 5.658-13.3 9.83-21.292 12.518-21.97 7.344-39.609 24.954-46.936 46.938-4.994 14.967-17.129 26.927-28.558 37.399-2.93 2.928-2.876 7.622-.003 10.606 3.072 3.189 8.28 2.231 10.609.003zm214.488-159.404c.549 3.864 3.008 7.62 7.5 7.62h23.56v23.439c0 6.792-1.782 13.453-5.1 19.305l-40.102-28.068-15.027-60.123c16.638 4.334 29.169 20.814 29.169 37.827zm-44.842-38.672 11.96 47.853-40.34-28.234c4.197-10.482 18.822-19.619 28.38-19.619zm-60.33 15.565 135.143 94.588-68.403 38.331-74.803-57.729z"></path><path d="m504.5 413.465h-92.639c4.241-11.227-2.617-25.978-14.052-29.926v-65.004c0-4.143-3.357-7.5-7.5-7.5s-7.5 3.357-7.5 7.5v71.25c0 4.143 3.357 7.5 7.5 7.5 4.428 0 8.03 3.602 8.03 8.029-.461 4.892-3.138 7.569-8.03 8.03h-31.06c-4.428 0-8.03-3.603-8.03-8.03l-.005-155.311c0-4.143-3.357-7.5-7.5-7.5s-7.5 3.357-7.5 7.5v32.069c-14.307-13.842-38.36-17.553-56.179-8.646l-32.867 16.464c-3.703 1.855-5.201 6.361-3.347 10.065 1.855 3.703 6.362 5.202 10.065 3.347l32.862-16.462c17.666-8.833 39.679-.463 47.014 17.875 6.289 15.717-1.248 35.665-16.45 43.261l-70.14 35.101c-3.11 1.557-4.742 5.047-3.942 8.432s3.821 5.775 7.299 5.775h46.59c4.428 0 8.03 3.602 8.03 8.029-.462 4.892-3.139 7.568-8.03 8.03l-206.37.12c-67.43-8.903-31.5-92.87-6.777-121.393 3.262-3.764 6.904-4.62 11.291-2.261 3.914 3.459 4.669 7.227 2.265 11.304-15.668 21.978-29.688 45.031-29.688 73.093 1.306 13.975 8.943 21.628 22.91 22.959h55.52c4.846-.514 7.338-3.207 7.478-8.078-3.141-40.62 8.246-70.774 38.076-100.829 2.918-2.939 2.9-7.688-.04-10.606-2.94-2.919-7.689-2.901-10.606.04-31.222 31.457-44.297 63.077-42.842 104.474h-47.586c-4.82-.471-7.457-3.121-7.91-7.95 0-24.131 13.186-45.943 27.17-64.779 6.825-10.238 3.715-25.331-6.422-32.102-12.472-6.722-23.148-4.562-32.099 6.422-25.739 31.589-56.514 93.213-18.198 129.709h-45.791c-4.143 0-7.5 3.357-7.5 7.5v31.06c0 4.143 3.357 7.5 7.5 7.5h269.16c4.143 0 7.5-3.357 7.5-7.5s-3.357-7.5-7.5-7.5h-261.66v-16.06h482v16.06h-187.66c-4.143 0-7.5 3.357-7.5 7.5s3.357 7.5 7.5 7.5h195.16c4.143 0 7.5-3.357 7.5-7.5v-31.06c0-4.143-3.357-7.501-7.5-7.501zm-207.38-31.18h-14.845l41.747-20.892c4.562-2.279 8.655-5.189 12.197-8.596v52.517c0 2.868.527 5.615 1.489 8.15h-19.037c5.138-13.596-6.553-31.179-21.551-31.179z"></path></g></g></svg>