<!-- icon666.com - MILLIONS vector ICONS FREE --><svg viewBox="0 0 57 58" xmlns="http://www.w3.org/2000/svg"><g id="Page-1" fill="none" fill-rule="evenodd"><g id="027---X-Ray" fill-rule="nonzero"><path id="Shape" d="m57 46c0 4-4 10-13 10 0 .55-2 2-4 2h-27.94c0-3 3.94-4 3.94-4v-12c-2.5012804-2.7383529-3.9227528-6.2920339-4-10 .0546909-3.533196.9602686-7.0011469 2.64-10.11.1132228-.2455668.1193759-.527126.0169892-.7774047-.1023868-.2502786-.3041162-.4467949-.5569892-.5425953-2.9093031-1.0060442-5.96184694-1.5361873-9.04-1.57-4.79-1.6-5.12-6.39-5.05-8.25.01402515-.4427914.32023067-.82248621.75-.93l5.8-1.44c.96634145-.24517964 1.80730399-.84026753 2.36-1.67l2.35-3.52c.5194647-.78242904 1.2986442-1.35618849 2.2-1.62 2.7870693-.87784446 5.6726007-1.40523494 8.59-1.57 4 0 7 6 7 12 0 2.56-1.1 4.03-2.61 4.72v.02l.29 2.01.22 1.54c.0543272.3961725.3427777.7201853.73.82 1.6804946.5724437 3.1854138 1.5676878 4.37 2.89 2.78 2.77 9.83 14.96 10.87 23.1.0723876.5324811.3585213 1.0125141.7924654 1.3294819.433944.3169679.9782661.4435286 1.5075346.3505181 3.44-.59 9.77-2.77 9.77-10.78 1.1967876 2.5054254 1.8769653 5.2261364 2 8z" fill="#f3d55b"></path><g fill="#f0c419"><path id="Shape" d="m26.74 18.75c-.7910545.3044724-1.6324036.4571365-2.48.45-1.0925587-.0072784-2.1742529-.2175136-3.19-.62-1.1376482-.4604811-1.8843157-1.5627046-1.89-2.79v-6.79c0-.55228475.4477153-1 1-1s1 .44771525 1 1v6.79c-.0003967.4098038.249279.7783727.63.93 1.3988833.6023064 2.9776573.6345995 4.4.09.0765711-.0337927.1572682-.0573294.24-.07z"></path><path id="Shape" d="m33.95 40.32c-.1805176.5213514-.7456812.8017081-1.27.63-1.8803297-.7346382-4.00316-.4833491-5.66.67-1.9515995 1.5352968-3.0697011 3.8973791-3.02 6.38 0 4.17 3.21 5.02 3.24 5.03.4892104.1225975.810566.5903014.7495747 1.090938-.0609912.5006367-.4852389.8775057-.9895747.879062-4.31 0-5.58 2.24-5.89 3h-2.05c.000755-.0775913.0108272-.154811.03-.23.7197813-2.2700705 2.622326-3.9654833 4.96-4.42-1.3831352-1.4299108-2.1234522-3.3619576-2.05-5.35-.0461301-3.1237276 1.3800176-6.0871515 3.85-8 2.1816791-1.5273428 4.9754711-1.8826443 7.47-.95.5213514.1805176.8017081.7456812.63 1.27z"></path><path id="Shape" d="m39 56c-.0007273.7025888-.1870094 1.3925223-.54 2h-3.46c1.1032019-.0032948 1.9967052-.8967981 2-2 0-.5522847.4477153-1 1-1s1 .4477153 1 1z"></path></g><path id="Shape" d="m4 9.02v2.98c0 .5522847-.44771525 1-1 1h-2.85c-.12144333-.7434703-.16834267-1.4972096-.14-2.25.01402515-.4427914.32023067-.82248621.75-.93z" fill="#3f5c6c"></path><rect id="Rectangle-path" fill="#35495e" height="22" rx="2" width="26" x="22" y="21"></rect><rect id="Rectangle-path" fill="#35495e" height="22" rx="2" width="26" x="22" y="21"></rect><path id="Shape" d="m46 44h-22c-1.6568542 0-3-1.3431458-3-3v-18c0-1.6568542 1.3431458-3 3-3h22c1.6568542 0 3 1.3431458 3 3v18c0 1.6568542-1.3431458 3-3 3zm-22-22c-.5522847 0-1 .4477153-1 1v18c0 .5522847.4477153 1 1 1h22c.5522847 0 1-.4477153 1-1v-18c0-.5522847-.4477153-1-1-1z" fill="#95a5a5"></path><path id="Shape" d="m38.891 34.083v-.006c-2.2668737-3.6474829-5.0375732-6.9564995-8.23-9.829-.4177759-.3230444-1.0147309-.2655435-1.3631639.1313051s-.328217.9962257.0461639 1.3686949c.019.018.521.461 1.29 1.218-.522.936-1.828 2.511-5.078 4.135-.4942948.2468713-.6948713.8477051-.448 1.342.2468713.4942948.8477052.6948713 1.342.448 2.2244063-.9756115 4.1599452-2.5078557 5.62-4.449.454.486.937 1.019 1.436 1.6-.811 1.482-2.888 4.151-7.855 6.017-.4593143.165092-.7323455.6376447-.6459712 1.1180242s.5069165.8282248.9949712.8229758c.1202031-.0002591.2393987-.021931.352-.064 4.825-1.813 7.268-4.335 8.493-6.236.651.84 1.293 1.73 1.881 2.66-1.6866343 1.7006053-3.760079 2.9673863-6.043 3.692-.5246705.1750743-.8080743.7423295-.633 1.267s.7423295.8080743 1.267.633c2.3993889-.7707809 4.5967091-2.0668992 6.432-3.794.5332635.9944642.9651055 2.0400646 1.289 3.121.1242837.4277751.5165369.7217611.962.721.0930706.0003713.1857025-.0127656.275-.039.2551775-.0726088.4710428-.2436447.6000781-.4754581.1290353-.2318135.1606634-.5054022.0879219-.7605419-.4949812-1.6274621-1.1910205-3.1868318-2.072-4.642z" fill="#ecf0f1"></path><path id="Shape" d="m36.65 24.241c-.4212323-.3340753-1.0312217-.2753078-1.3809275.133041-.3497059.4083488-.3139582 1.020119.0809275 1.384959.067.057 6.72 5.856 7.659 13.365.0624768.4999598.487152.8753539.991.876.0418034.0002923.0835749-.0023811.125-.008.5477838-.0686288.936322-.5681779.868-1.116-1.037-8.289-8.045-14.376-8.343-14.635z" fill="#bdc3c7"></path></g></g></svg>