<!-- icon666.com - MILLIONS vector ICONS FREE --><svg viewBox="0 0 59 60" xmlns="http://www.w3.org/2000/svg"><g id="Page-1" fill="none" fill-rule="evenodd"><g id="027---X-Ray" fill-rule="nonzero"><g id="Icons" transform="translate(1 1)"><path id="Shape" d="m4 9.02v2.98c0 .5522847-.44771525 1-1 1h-2.85c-.12144333-.7434703-.16834267-1.4972096-.14-2.25.01402515-.4427914.32023067-.82248621.75-.93z" fill="#37474f"></path><path id="Shape" d="m57 46c0 4-4 10-13 10 0 .55-2 2-4 2h-19.94s.94-4 6.94-4c0 0-4-1-4-6-.0023752-1.7665007.4894948-3.4984373 1.42-5h17.61c.4079877 1.3407065.7089324 2.7116769.9 4.1.0723876.5324811.3585213 1.0125141.7924654 1.3294819.433944.3169679.9782661.4435286 1.5075346.3505181 3.44-.59 9.77-2.77 9.77-10.78 1.1967876 2.5054254 1.8769653 5.2261364 2 8z" fill="#a0522d"></path><path id="Shape" d="m55 38c.0423825 1.8663937-.3905142 3.712915-1.258 5.366.1647769.8684919.2511246 1.7500416.258 2.634 0 4-4 10-13 10 0 .55-2 2-4 2h3c2 0 4-1.45 4-2 9 0 13-6 13-10-.1230347-2.7738636-.8032124-5.4945746-2-8z" fill="#783e22"></path><path id="Shape" d="m42.23 48.78c.461-.079.976-.19 1.518-.336-.4509979-.3116566-.7483623-.8002358-.818-1.344-.1910676-1.3883231-.4920123-2.7592935-.9-4.1h-3c.4079877 1.3407065.7089324 2.7116769.9 4.1.0723876.5324811.3585213 1.0125141.7924654 1.3294819.433944.3169679.9782661.4435286 1.5075346.3505181z" fill="#783e22"></path><path id="Shape" d="m26.45 16.72.51 3.57c.0398074.293413.2084788.5537536.46.71h-3.42c-1.1032019.0032948-1.9967052.8967981-2 2v18c.0032948 1.1032019.8967981 1.9967052 2 2h.42c-.9305052 1.5015627-1.4223752 3.2334993-1.42 5 0 5 4 6 4 6-6 0-6.94 4-6.94 4h-8c0-3 3.94-4 3.94-4v-12c-2.5012804-2.7383529-3.9227528-6.2920339-4-10 .0546909-3.533196.9602686-7.0011469 2.64-10.11.1132228-.2455668.1193759-.527126.0169892-.7774047-.1023868-.2502786-.3041162-.4467949-.5569892-.5425953-2.9093031-1.0060442-5.96184694-1.5361873-9.04-1.57-2.66566825-.8728556-4.58177814-3.2143341-4.91-6h2.85c.55228475 0 1-.4477153 1-1v-2.98l2.56-.64c.96634145-.24517964 1.80730399-.84026753 2.36-1.67l2.35-3.52c.5194647-.78242904 1.2986442-1.35618849 2.2-1.62 2.7870693-.87784446 5.6726007-1.40523494 8.59-1.57 4 0 7 6 7 12 0 2.56-1.1 4.03-2.61 4.72z" fill="#a0522d"></path><path id="Shape" d="m23 48c-.0023752-1.7665007.4894948-3.4984373 1.42-5h-.42c-1.1032019-.0032948-1.9967052-.8967981-2-2v-18c.0032948-1.1032019.8967981-1.9967052 2-2h-3c-1.1032019.0032948-1.9967052.8967981-2 2v18c.0032948 1.1032019.8967981 1.9967052 2 2h.42c-.9305052 1.5015627-1.4223752 3.2334993-1.42 5 0 5 4 6 4 6-6 0-6.94 4-6.94 4h3s.94-4 6.94-4c0 0-4-1-4-6z" fill="#783e22"></path><path id="Shape" d="m29.06 12c0-6-3-12-7-12-.6734783.00679713-1.3459735.05321065-2.014.139 3.5.887 6.014 6.367 6.014 11.861 0 2.56-1.1 4.03-2.61 4.72l.51 3.57c.0398074.293413.2084788.5537536.46.71h3c-.2515212-.1562464-.4201926-.416587-.46-.71l-.51-3.57c1.51-.69 2.61-2.16 2.61-4.72z" fill="#783e22"></path><rect id="Rectangle-path" fill="#37474f" height="22" rx="2" width="26" x="22" y="21"></rect><g fill="#f5f5f5"><path id="Shape" d="m38.891 34.083v-.006c-2.2668737-3.6474829-5.0375732-6.9564995-8.23-9.829-.4177759-.3230444-1.0147309-.2655435-1.3631639.1313051s-.328217.9962257.0461639 1.3686949c.019.018.521.461 1.29 1.218-.522.936-1.828 2.511-5.078 4.135-.4942948.2468713-.6948713.8477051-.448 1.342.2468713.4942948.8477052.6948713 1.342.448 2.2244063-.9756115 4.1599452-2.5078557 5.62-4.449.454.486.937 1.019 1.436 1.6-.811 1.482-2.888 4.151-7.855 6.017-.4593143.165092-.7323455.6376447-.6459712 1.1180242s.5069165.8282248.9949712.8229758c.1202031-.0002591.2393987-.021931.352-.064 4.825-1.813 7.268-4.335 8.493-6.236.651.84 1.293 1.73 1.881 2.66-1.6866343 1.7006053-3.760079 2.9673863-6.043 3.692-.5246705.1750743-.8080743.7423295-.633 1.267s.7423295.8080743 1.267.633c2.3993889-.7707809 4.5967091-2.0668992 6.432-3.794.5332635.9944642.9651055 2.0400646 1.289 3.121.1242837.4277751.5165369.7217611.962.721.0930706.0003713.1857025-.0127656.275-.039.2551775-.0726088.4710428-.2436447.6000781-.4754581.1290353-.2318135.1606634-.5054022.0879219-.7605419-.4949812-1.6274621-1.1910205-3.1868318-2.072-4.642z"></path><path id="Shape" d="m36.65 24.241c-.4212323-.3340753-1.0312217-.2753078-1.3809275.133041-.3497059.4083488-.3139582 1.020119.0809275 1.384959.067.057 6.72 5.856 7.659 13.365.0624768.4999598.487152.8753539.991.876.0418034.0002923.0835749-.0023811.125-.008.5477838-.0686288.936322-.5681779.868-1.116-1.037-8.289-8.045-14.376-8.343-14.635z"></path></g></g><g id="Layer_2" fill="#000"><path id="Shape" d="m5.746 20.949c.10191164.0338571.20861155.0510777.316.051 2.94929375.0341019 5.87481.5325432 8.669 1.477l-.251.543c-1.6034727 3.0840349-2.4533556 6.504128-2.48 9.98.0667239 3.8272001 1.4834204 7.5077775 4 10.392v10.887c-1.329.512-3.938 1.878-3.938 4.721 0 .5522847.4477153 1 1 1h27.938c1.7358019-.0299137 3.387507-.7529623 4.587-2.008 9.245-.255 13.413-6.518 13.413-10.992-.1181371-2.9291988-.8327118-5.8034905-2.1-8.447-.2040519-.4214702-.6732513-.6449027-1.129074-.5376645-.4558226.1072383-.7761896.5164267-.770926.9846645 0 7.188-5.6 9.222-8.94 9.794-.2671326.0468419-.5417543-.0186476-.759-.181-.2086962-.1510518-.3458196-.3815204-.379-.637-.1332775-1.0029912-.3279767-1.9968589-.583-2.976h2.661c1.6568542 0 3-1.3431458 3-3v-18c0-1.6568542-1.3431458-3-3-3h-18.071l-.392-2.748c.042-.027.089-.045.131-.073 1.6449989-1.1920022 2.5517785-3.1536614 2.394-5.179 0-6.278-3.214-13-8-13-3.0135764.16582467-5.9948108.70597396-8.875 1.608-1.1249039.33009549-2.09752 1.0460146-2.747 2.022l-2.352 3.529c-.41437994.61925368-1.04477605 1.06174326-1.768 1.241l-5.8 1.449c-.86367318.2161979-1.4804422.9772737-1.513 1.867-.058 1.698.187 7.384 5.739 9.233zm37.191 27.277c.09978.7983388.5245359 1.5201344 1.174 1.995.6570896.4846672 1.4829744.6813924 2.288.545 2.646-.454 8.2-2.076 10.016-7.747.3664907 1.2960852.5631347 2.6342727.585 3.981 0 3.629-3.813 9-12 9-.4583886-.000103-.8581532.311466-.97.756-.8313193.7596045-1.9047524 1.2003143-3.03 1.244h-1.556c.3599241-.6053465.5518554-1.2957468.556-2 0-.5522847-.4477153-1-1-1s-1 .4477153-1 1c0 1.1045695-.8954305 2-2 2h-13.279c.755-.915 2.279-2 5.279-2 .5047125-.0005564.929899-.377126.9914367-.8780733.0615377-.5009472-.259865-.9692298-.7494367-1.0919267-.032-.008-3.242-.859-3.242-5.03.0058649-1.39668.3554861-2.7704372 1.018-4h16.251c.2968823 1.0586206.5200831 2.1365335.668 3.226zm5.063-24.226v18c0 .5522847-.4477153 1-1 1h-22c-.5522847 0-1-.4477153-1-1v-18c0-.5522847.4477153-1 1-1h22c.5522847 0 1 .4477153 1 1zm-40.195-13.655c1.20697914-.3005898 2.2580614-1.0413763 2.947-2.077l2.348-3.528c.3880616-.58425129.9693455-1.01331104 1.642-1.212 2.7001841-.84857456 5.4945022-1.36176184 8.32-1.528 3.141 0 6 5.243 6 11 .1340738 1.3578337-.4397819 2.6891488-1.519 3.524-1.5149161.8400362-3.3378522.9141996-4.916.2-.3801213-.1551877-.628131-.5254222-.627-.936v-6.788c0-.55228475-.4477153-1-1-1s-1 .44771525-1 1v6.788c-.0071713 1.2324881.7441398 2.342569 1.891 2.794 1.5028906.599866 3.1467901.7540142 4.735.444l.282 1.974h-1.908c-1.6568542 0-3 1.3431458-3 3v18c.0019179 1.2242822.7475792 2.324568 1.884 2.78-.5806599 1.3312508-.88155 2.7676266-.884 4.22-.072387 1.9872986.6665537 3.9185799 2.047 5.35-2.0347963.4365929-3.7572554 1.7816883-4.674 3.65h-6.066c.74-1.442 2.915-2.024 2.939-2.031.4433785-.1125291.7538766-.5115644.754-.969v-12c.0002093-.2645618-.1044287-.5184257-.291-.706-2.3062392-2.5558587-3.6218663-5.8525525-3.709-9.294.0266411-3.186193.8152628-6.3197641 2.3-9.139l.255-.553c.2266729-.4905377.240426-1.0529696.038-1.554-.205284-.5070189-.6082473-.9085379-1.116-1.112-2.9715924-1.044864-6.09335068-1.5994379-9.243-1.642-1.84513701-.6337397-3.26622438-2.1260867-3.809-4h1.575c1.1045695 0 2-.8954305 2-2v-2.2zm-5.8 1.45 1.995-.495v1.7h-1.963c-.03348431-.3990665-.04383497-.7997369-.031-1.2z"></path></g></g></g></svg>