<!-- icon666.com - MILLIONS vector ICONS FREE --><svg id="Layer_1" enable-background="new 0 0 64 64" viewBox="0 0 64 64" xmlns="http://www.w3.org/2000/svg"><g><g><g><path d="m52.998 44c-1.291 0-2.317 1.653-3.467 3.353.004.014.008.028.012.042-.72-2.373-1.64-4.287-2.605-5.913-.001.001-.003.002-.005.004 4.935-4.219 8.066-10.484 8.066-17.485 0-12.703-10.297-23-23-23s-23 10.297-23 23c0 7.019 3.147 13.298 8.102 17.517-2.15 3.863-4.104 9.04-4.104 16.901 0 2.53 2.27 4.582 5.066 4.582h27.867c2.799 0 5.066-2.052 5.066-4.582 0-.835-.024-1.628-.061-2.397 2.332-2.346 3.984-6.288 4.061-9.021.051-1.75-.506-3.001-1.998-3.001z" fill="#806749"></path></g><g><path d="m31.999 47c-5.685 0-10.883-2.066-14.898-5.483-2.15 3.863-4.104 9.04-4.104 16.901 0 2.53 2.27 4.582 5.066 4.582h27.867c2.799 0 5.066-2.052 5.066-4.582 0-8.349-1.923-13.335-4.06-16.937-4.018 3.438-9.233 5.519-14.937 5.519z" fill="#ffc477"></path></g><g><circle cx="31.999" cy="24" fill="#fff" r="23"></circle></g><g><path d="m48.24 13.758c-2.262-2.264-7.98-4.435-10.48-2.469-1.758-1.417-3.707-2.289-5.762-2.289s-4.004.872-5.762 2.29c0-.001 0-.001 0-.001-2.498-1.966-8.217.205-10.481 2.469-2.344 2.343-2.344 6.142 0 8.484.85.85 1.893 1.381 2.984 1.614-.479 1.808-.742 3.57-.742 5.144 0 7.732 6.268 14 14 14 7.733 0 14-6.268 14-14 0-1.573-.263-3.336-.742-5.144 1.094-.233 2.135-.765 2.984-1.614 2.345-2.343 2.345-6.141.001-8.484z" fill="#806749"></path></g><g><path d="m45.998 29c0 7.732-6.267 14-14 14-7.732 0-14-6.268-14-14s6.268-20 14-20 14 12.268 14 20z" fill="#ffc477"></path></g><g><path d="m34.998 33c0 1.656-1.344 3-3 3s-3-1.344-3-3 1.344-2 3-2 3 .344 3 2z" fill="#806749"></path></g><g><g><path d="m41.998 60c0-2.762-2.238-5-5-5s-5 2.238-5 5 2.238 3 5 3 5-.238 5-3z" fill="#ffc477"></path></g><g><path d="m31.998 60c0-2.762-2.238-5-5-5s-5 2.238-5 5 2.238 3 5 3 5-.238 5-3z" fill="#ffc477"></path></g></g><g><path d="m31.998 9c-.168 0-.336.014-.504.024-1.559 1.899-2.496 4.327-2.496 6.976 0 6.075 4.926 11 11 11 2.059 0 3.977-.575 5.623-1.559-1.455-7.441-7-16.441-13.623-16.441z" fill="#fff"></path></g></g><g fill="#554431"><path d="m17.542 24.545c-.352 1.555-.544 3.067-.544 4.455 0 8.271 6.729 15 15 15s15-6.729 15-15c0-1.388-.192-2.9-.544-4.454.937-.348 1.786-.889 2.494-1.597 1.322-1.321 2.051-3.079 2.051-4.949s-.728-3.628-2.05-4.949c-2.426-2.427-8.003-4.558-11.148-2.96-1.787-1.306-3.746-2.091-5.803-2.091s-4.017.785-5.802 2.091c-3.143-1.595-8.721.533-11.147 2.96-1.322 1.321-2.051 3.079-2.051 4.949s.729 3.628 2.051 4.949c.707.707 1.556 1.248 2.493 1.596zm14.456 10.455c-1.103 0-2-.897-2-2 0-.469 0-1 2-1s2 .531 2 1c0 1.103-.897 2-2 2zm1 6.949v-5.091c1.72-.447 3-2 3-3.858 0-1.99-1.346-3-4-3s-4 1.01-4 3c0 1.858 1.28 3.411 3 3.858v5.091c-6.702-.514-12-6.119-12-12.949 0-5.388 3.216-13.114 7.719-16.834.025-.014.043-.04.067-.056.807-.658 1.654-1.188 2.532-1.551-.853 1.677-1.318 3.541-1.318 5.44 0 6.617 5.383 12 12 12 1.676 0 3.329-.367 4.86-1.05.091.71.14 1.398.14 2.05 0 6.831-5.298 12.437-12 12.95zm11.49-17.05c-1.398.708-2.931 1.101-4.49 1.101-5.514 0-10-4.486-10-10 0-2.164.717-4.274 2.013-5.999 5.828.012 10.899 7.993 12.477 14.898zm3.045-10.434c.945.944 1.465 2.2 1.465 3.535s-.52 2.591-1.465 3.535c-.458.457-1.004.809-1.601 1.058-1.246-4.057-3.508-8.175-6.379-10.998 2.373-.433 6.287 1.176 7.98 2.87zm-31.07 0c1.694-1.695 5.608-3.301 7.98-2.87-2.871 2.824-5.133 6.941-6.378 10.997-.597-.248-1.144-.6-1.601-1.057-.945-.944-1.465-2.2-1.465-3.535s.519-2.591 1.464-3.535z"></path><path d="m55.036 43.811c-.516-.531-1.221-.811-2.038-.811-1.299 0-2.261.939-3.165 2.157-.526-1.372-1.091-2.516-1.626-3.475 4.786-4.39 7.793-10.691 7.793-17.683 0-13.233-10.767-24-24-24s-24 10.767-24 24c0 7.019 3.029 13.342 7.847 17.734-1.755 3.311-3.849 8.513-3.849 16.684 0 3.078 2.721 5.582 6.066 5.582h27.867c3.345 0 6.066-2.504 6.066-5.582 0-.706-.018-1.38-.044-2.038 2.241-2.444 3.96-6.368 4.044-9.352.04-1.436-.283-2.519-.961-3.216zm-45.037-19.811c0-12.131 9.869-22 22-22s22 9.869 22 22-9.869 22-22 22-22-9.869-22-22zm12.999 36c0-2.206 1.795-4 4-4 2.206 0 4 1.794 4 4 0 1.476-.604 2-4 2s-4-.524-4-2zm14 2c-3.395 0-4-.524-4-2 0-2.206 1.795-4 4-4 2.206 0 4 1.794 4 4 0 1.476-.605 2-4 2zm8.933 0h-3.393c.285-.521.459-1.171.459-2 0-3.309-2.691-6-6-6-2.086 0-3.924 1.071-5 2.69-1.076-1.619-2.914-2.69-5-2.69-3.309 0-6 2.691-6 6 0 .829.175 1.479.46 2h-3.393c-2.242 0-4.066-1.606-4.066-3.582 0-7.432 1.816-12.244 3.421-15.373 4.045 3.104 9.1 4.955 14.58 4.955 5.51 0 10.589-1.871 14.644-5.006 1.578 2.928 3.354 7.579 3.354 15.424.001 1.976-1.823 3.582-4.066 3.582zm5.808-8.604c-.243-2.263-.64-4.203-1.117-5.873.806-1.197 1.711-2.523 2.376-2.523.363 0 .519.117.604.205.275.283.42.927.397 1.767-.055 1.932-.97 4.424-2.26 6.424z"></path><path d="m49.966 24.947c-.103 1.948-.527 3.859-1.258 5.68-.206.513.043 1.095.555 1.301.122.049.248.072.372.072.396 0 .771-.237.928-.627.813-2.025 1.285-4.151 1.4-6.32.029-.551-.394-1.022-.945-1.052-.543-.022-1.022.394-1.052.946z"></path><path d="m14.033 24.947c-.029-.553-.502-.97-1.052-.946-.551.029-.975.501-.945 1.052.115 2.168.586 4.294 1.399 6.32.156.39.532.627.928.627.124 0 .25-.023.372-.072.513-.205.761-.788.556-1.301-.732-1.82-1.155-3.732-1.258-5.68z"></path><path d="m24.424 7.702c4.809-2.259 10.331-2.262 15.15 0 .138.065.282.095.424.095.376 0 .736-.213.906-.575.234-.5.019-1.096-.481-1.33-5.355-2.511-11.506-2.509-16.85 0-.5.234-.715.83-.48 1.33.236.5.833.715 1.331.48z"></path></g></g></svg>