<!-- icon666.com - MILLIONS vector ICONS FREE --><svg id="Flat" viewBox="0 0 64 64" xmlns="http://www.w3.org/2000/svg"><g id="Color_copy"><g><path d="m61 3h-9.13c-2.213 1.142-4.668 1.763-7.178 1.787l-13.889.135c-1.501.015-2.942.591-4.039 1.616l-8.725 8.154c-1.187 1.109-1.42 2.992-.374 4.236 1.115 1.326 3.098 1.432 4.347.264l5.873-5.489c.409-.383.961-.576 1.52-.533l3.066.237c-.012.045-.034.085-.044.13-.373 1.692.749 3.329 2.436 3.61l8.192 1.363c1.113.185 2.24.273 3.368.262 4.275-.041 8.416-1.495 11.779-4.134l2.798-2.195z" fill="#f9cdae"></path><path d="m39.77 10.29-4.688-.78c-1.572-.262-3.2.636-3.596 2.18-.147.571-.104 1.131.059 1.645l.928.072c.411-1.505 1.989-2.409 3.545-2.151l6.692 1.113c-.611-1.106-1.694-1.872-2.94-2.079z" fill="#f6b98d"></path><path d="m61 3h-4.316c.008.812-.059 1.623-.219 2.419-.53 2.6-1.958 5.021-4.179 6.771-.829.651-1.701 1.224-2.611 1.726-2.793 1.541-5.942 2.376-9.167 2.408-1.123.014-2.259-.079-3.368-.266l-4.565-.76c.369.938 1.213 1.661 2.286 1.845l8.197 1.36c1.109.188 2.245.281 3.368.266 3.226-.032 6.374-.867 9.167-2.408.911-.502 1.783-1.075 2.611-1.726l2.796-2.192z" fill="#f6b98d"></path><g><path d="m44 61h-24v-12c0-6.627 5.373-12 12-12 6.627 0 12 5.373 12 12z" fill="#b8bebf"></path><path d="m32 58c0-5.944 3.877-11.193 9.558-12.941l1.588-.489c-1.764-4.432-6.085-7.57-11.146-7.57-6.627 0-12 5.373-12 12v12h12z" fill="#93999a"></path><path d="m32 50c-3.314 0-6 2.686-6 6v5h12v-5c0-3.314-2.686-6-6-6z" fill="#e9f1f2"></path><g><path d="m42 31c0-5.899-5.107-10.604-11.141-9.937-4.622.511-8.358 4.304-8.81 8.933-.29 2.964.719 3.69 2.521 5.687 1.564 1.732 2.43 3.981 2.43 6.314v.003c0 2.209 1.791 4 4 4h2c2.209 0 4-1.791 4-4 0-2.282.773-4.534 2.327-6.205 1.658-1.782 2.673-2.168 2.673-4.795z" fill="#d0d8da"></path><path d="m36.782 27.329.118.522c1.347 2.021 1.371 4.575.297 6.754-.503 1.021-.725 2.122-.697 3.21-5.396-.948-9.5-5.647-9.5-11.315 0-1.656.357-3.227.987-4.65-3.221 1.429-5.585 4.528-5.938 8.146-.29 2.964.719 3.69 2.523 5.689 1.56 1.729 2.428 3.983 2.428 6.312v.003c0 2.209 1.791 4 4 4h2c2.18 0 4.017-1.743 4-3.922-.018-2.308.755-4.593 2.327-6.283 1.658-1.782 2.673-2.168 2.673-4.795 0-3.202-1.513-6.045-3.854-7.875-1.191 1.046-1.714 2.659-1.364 4.204z" fill="#b8bebf"></path><path d="m30 38c1.105-1.105 2.895-1.105 4 0l-1.106 2.211c-.369.737-1.42.737-1.789 0z" fill="#656b76"></path><path d="m27.499 43.897c.678 1.247 1.983 2.103 3.501 2.103h2c1.518 0 2.823-.856 3.501-2.103-1.821-.303-3.459-1.334-4.501-2.897-1.042 1.563-2.68 2.594-4.501 2.897z" fill="#656b76"></path><path d="m38.514 23.865.238-.178c1.265-.949 3.049-.753 4.078.448l2.739 3.196c.923 1.077 1.431 2.449 1.431 3.869 0 1.174-.347 2.322-.999 3.298l-2.003 3.004c-.651.977-.998 2.124-.998 3.298v1.785c0 .891-1.077 1.337-1.707.707l-.789-.789c-2.092-2.092-2.611-5.289-1.288-7.935 1.103-2.207.94-4.835-.429-6.888l-.738-1.106c-.588-.883-.385-2.072.465-2.709z" fill="#e9f1f2"></path><path d="m25.486 23.865-.238-.178c-1.265-.949-3.049-.753-4.078.448l-2.739 3.196c-.923 1.077-1.431 2.449-1.431 3.869 0 1.174.347 2.322.999 3.298l2.003 3.004c.651.977.998 2.124.998 3.298v1.785c0 .891 1.077 1.337 1.707.707l.789-.789c2.092-2.092 2.611-5.289 1.288-7.935-1.103-2.207-.94-4.835.429-6.888l.738-1.106c.588-.883.385-2.072-.465-2.709z" fill="#e9f1f2"></path><path d="m44.29 37.07-.274.406c-.662.982-1.016 2.14-1.016 3.324v1.79c0 .889-1.075 1.335-1.704.706l-.796-.796c-2.09-2.09-2.61-5.29-1.28-7.93.48-.97.72-2.03.72-3.08 0-1.33-.38-2.66-1.15-3.81l-.737-1.104c-.59-.884-.386-2.075.465-2.712l.233-.174c.25-.19.52-.33.8-.43.48.16.93.46 1.28.87l2.74 3.2c.919 1.08 1.429 2.45 1.429 3.87 0 1.17-.35 2.32-1 3.3-.58.87-.38 1.95.29 2.57z" fill="#d0d8da"></path><path d="m19.71 37.07.29.43c.652.966 1 2.106 1 3.271v1.81c0 .892 1.079 1.339 1.71.708l.79-.79c2.09-2.09 2.61-5.29 1.28-7.93-.48-.97-.72-2.03-.72-3.08 0-1.33.38-2.66 1.15-3.81l.737-1.104c.59-.884.386-2.075-.465-2.712l-.232-.173c-.25-.19-.52-.33-.8-.43-.48.16-.93.46-1.28.87l-2.74 3.2c-.92 1.08-1.43 2.45-1.43 3.87 0 1.17.35 2.32 1 3.3.58.87.38 1.95-.29 2.57z" fill="#d0d8da"></path><g fill="#545a63"><path d="m33.12 39.75-.23.46c-.36.74-1.42.74-1.78 0l-1.11-2.21c.33-.33.73-.56 1.15-.69l.96 1.9c.2.41.62.59 1.01.54z"></path><path d="m36.25 44.31c-.73 1.01-1.9 1.69-3.25 1.69h-2c-1.52 0-2.82-.86-3.5-2.1 1.05-.18 2.03-.59 2.88-1.22.63 1.37 2.01 2.32 3.62 2.32.83 0 1.61-.26 2.25-.69z"></path></g></g><path d="m34.306 50.461c-.71-.296-1.489-.461-2.306-.461-3.314 0-6 2.686-6 6v5h6v-3c0-2.758.843-5.361 2.306-7.539z" fill="#d0d8da"></path><g fill="#545a63"><circle cx="28" cy="31" r="1"></circle><circle cx="36" cy="31" r="1"></circle></g></g></g></g></svg>