<!-- icon666.com - MILLIONS vector ICONS FREE --><svg viewBox="0 0 96 96" xmlns="http://www.w3.org/2000/svg"><g id="Pet_Insuracne" data-name="Pet Insuracne"><path d="m25.92 85.87v9h-22.59a8 8 0 0 1 7.39-8z" fill="#e2793b"></path><path d="m25.92 85.87v9h-4.77a8.92 8.92 0 0 1 -8.87-8.06z" fill="#ce5b3b"></path><path d="m57.22 94.91h-33a8.9 8.9 0 0 1 -8.64-11c9.51-38.26 7.18-28.88 11.93-48h26.4c3.49 14-.06-.29 11.93 48a8.89 8.89 0 0 1 -8.62 11z" fill="#e2793b"></path><path d="m56.87 47.68a13.71 13.71 0 0 1 -10.75 5.16h-10.79a13.71 13.71 0 0 1 -10.75-5.16l2.94-11.85h26.4z" fill="#ce5b3b"></path><path d="m59.63 88.52a2.42 2.42 0 0 1 -2.39 1.87h-2.92a4.9 4.9 0 0 1 .2 1.5 1.06 1.06 0 0 1 -1.07 1h-10.64a1.09 1.09 0 0 1 -1.09-1.09v-1.41h-2v1.43a1.09 1.09 0 0 1 -1.09 1.09h-10.63a1.08 1.08 0 0 1 -1.09-1 4.94 4.94 0 0 1 .2-1.5h-2.9a2.53 2.53 0 0 1 -2.43-2 11.37 11.37 0 0 1 0-4.47l4.63-24.66a4.41 4.41 0 0 1 5.42-3.49c2.23.59 2.61.46 14.33.46a14 14 0 0 0 3.53-.45 4.41 4.41 0 0 1 5.43 3.48l4.58 24.59a11.34 11.34 0 0 1 -.07 4.65z" fill="#ec974a"></path><path d="m27.63 11-4.25 15.45a5.36 5.36 0 1 1 -10.27-3.05l2.75-8.61a9.52 9.52 0 0 1 4.71-5.57 9.8 9.8 0 0 1 4.9-1.05 2.24 2.24 0 0 1 2.16 2.83z" fill="#e2793b"></path><path d="m64.41 30.26a5.36 5.36 0 0 1 -6.34-3.81l-4.25-15.45a2.24 2.24 0 0 1 2.18-2.83 9.82 9.82 0 0 1 4.9 1.05 9.56 9.56 0 0 1 4.71 5.57l2.75 8.61a5.36 5.36 0 0 1 -3.95 6.86z" fill="#e2793b"></path><path d="m27.63 11-4.25 15.45a5.35 5.35 0 0 1 -6.38 3.81c3.15-19.91 3-19.26 3.54-21a9.8 9.8 0 0 1 4.9-1.05 2.24 2.24 0 0 1 2.19 2.79z" fill="#ce5b3b"></path><path d="m64.41 30.26a5.36 5.36 0 0 1 -6.34-3.81l-4.25-15.45a2.24 2.24 0 0 1 2.18-2.83 9.82 9.82 0 0 1 4.9 1.05c.54 1.78.32.78 3.51 21.04z" fill="#ce5b3b"></path><path d="m46.12 48.59h-10.79a13.78 13.78 0 0 1 -13.61-15.93l3.15-19.94a13.78 13.78 0 0 1 13.61-11.63h4.52a13.78 13.78 0 0 1 13.58 11.63l3.15 19.94a13.78 13.78 0 0 1 -13.61 15.93z" fill="#fba65e"></path><path d="m35.33 44.59a9.78 9.78 0 0 1 -9.66-11.3l3.15-19.95a9.74 9.74 0 0 1 9.66-8.25h4.52a9.73 9.73 0 0 1 9.66 8.25l3.15 19.94a9.77 9.77 0 0 1 -9.66 11.31z" fill="#fbba72"></path><path d="m49.18 12.26a2 2 0 0 0 1.63-3.26 9.71 9.71 0 0 0 -7.81-3.91h-4.52a9.72 9.72 0 0 0 -7.84 3.91 2 2 0 0 0 1.64 3.24z" fill="#fbd872"></path><path d="m41.72 39.22v9.37h-2v-9.37a1 1 0 0 1 2 0z" fill="#e2793b"></path><path d="m40.91 39.22h-.36a4 4 0 0 1 -4-4 2.78 2.78 0 0 1 2.78-2.78h2.83a2.78 2.78 0 0 1 2.78 2.78 4 4 0 0 1 -4.03 4z" fill="#332f49"></path><path d="m41.72 63.61v28.21a3.09 3.09 0 0 1 -3.08 3.09h-10.64a3.1 3.1 0 0 1 -3.09-3.09 7.41 7.41 0 0 1 6.4-7.33v-20.88a1 1 0 0 1 2 0v21.82a1 1 0 0 1 -1 1 5.41 5.41 0 0 0 -5.4 5.39 1.09 1.09 0 0 0 1.09 1.09h10.64a1.08 1.08 0 0 0 1.08-1.09v-28.21a1 1 0 0 1 2 0z" fill="#e2793b"></path><path d="m56.52 91.82a3.09 3.09 0 0 1 -3.08 3.09h-10.63a3.11 3.11 0 0 1 -3.09-3.09v-28.21a1 1 0 0 1 2 0v28.21a1.09 1.09 0 0 0 1.09 1.09h10.63a1.08 1.08 0 0 0 1.08-1.09 5.41 5.41 0 0 0 -5.39-5.39 1 1 0 0 1 -1-1v-21.82a1 1 0 0 1 2 0v20.88a7.41 7.41 0 0 1 6.39 7.33z" fill="#e2793b"></path><path d="m33.32 21.11a1 1 0 0 1 -1-1v-2.06a1 1 0 0 1 2 0v2.06a1 1 0 0 1 -1 1z" fill="#302d3d"></path><path d="m48.13 21.11a1 1 0 0 1 -1-1v-2.06a1 1 0 0 1 2 0v2.06a1 1 0 0 1 -1 1z" fill="#302d3d"></path><path d="m92.67 37.57v19c0 16.43-12.75 22.25-18.67 25.43l-.81.43c-4.75-2.67-10.44-5.19-14.63-10.71a23.4 23.4 0 0 1 -4.75-12.91c-.12-1.59-.08-1.32-.08-21.2l19.47-5.61c.12 0 13.26 3.76 19.47 5.57z" fill="#7498f0"></path><path d="m90.83 54.62a1.37 1.37 0 0 1 -1.37-1.37v-10.82a3.24 3.24 0 0 0 -1.22-2.53c-.72-.58-.12-.3-14.13-4.34a3.28 3.28 0 0 0 -1.81 0c-14.3 4.11-13.42 3.77-14.13 4.34a3.27 3.27 0 0 0 -1.17 2.53v10.82a1.37 1.37 0 0 1 -1.37 1.37h-1.89c0 3.84 0 7.33 1.82 11.85 3.81 9.23 12.16 12.84 17.64 15.92l.8-.39c5.91-3.14 18.66-9 18.66-25.38v-2z" fill="#515cd2"></path><g fill="#e0edff"><path d="m74 72.77v9.23l-.81.43c-.25-.14-.52-.29-.8-.43v-9.23a.81.81 0 0 1 1.61 0z"></path><path d="m92.67 37.57v1l-8 6a.8.8 0 0 1 -1-1.28l8-6z"></path><path d="m60.9 43a.82.82 0 0 1 -1.13.16l-6-4.54v-1l1-.28 6 4.53a.81.81 0 0 1 .13 1.13z"></path><path d="m74 32.2v9a.81.81 0 0 1 -1.61 0v-9l.8-.23z"></path></g><path d="m89.2 41.17c-4.82 3.65-4.62 3.58-5 3.58a.8.8 0 0 1 -.48-1.44l4.53-3.41a3.25 3.25 0 0 1 .95 1.27z" fill="#fff"></path><path d="m60.9 43a.82.82 0 0 1 -1.13.16l-2.56-1.94a3.16 3.16 0 0 1 1-1.27l2.56 1.92a.81.81 0 0 1 .13 1.13z" fill="#fff"></path><path d="m74 35.54v5.65a.81.81 0 0 1 -1.61 0v-5.65a3.14 3.14 0 0 1 1.61 0z" fill="#fff"></path><path d="m86.66 40.85a1.65 1.65 0 0 1 1.2 1.58c0 15.24.12 15.79-.4 18.49-1.66 8.74-8.28 12.84-13.46 15.61a1.68 1.68 0 0 1 -1.57 0c-3.55-1.93-6.9-4-9.5-7.1a19.25 19.25 0 0 1 -4.38-12.84v-14.16a1.65 1.65 0 0 1 1.2-1.58l13-3.75c.64-.18.85 0 4 .88z" fill="#ffbd38"></path><path d="m87.86 42.43v2.7a1.66 1.66 0 0 0 -1.2-1.59l-13-3.74c-.63-.18.28-.34-13.91 3.74a1.66 1.66 0 0 0 -1.2 1.59v-2.7a1.66 1.66 0 0 1 1.2-1.59l13-3.74c.89-.24 1.28.21 13.91 3.74a1.66 1.66 0 0 1 1.2 1.59z" fill="#ff9f38"></path><path d="m87.86 48.37c0 8.16.12 9.86-.4 12.55-1.66 8.73-8.26 12.83-13.46 15.59a1.7 1.7 0 0 1 -1.61 0c-.73-.4-1.49-.82-2.09-1.18 11.04-6.19 17.56-14 17.56-26.96z" fill="#ff9f38"></path><path d="m85.46 45.31a39.1 39.1 0 0 1 -17.46 25.69 3.26 3.26 0 0 1 -4.08-.49 19.12 19.12 0 0 1 -5.35-13.92v-11.31a1.91 1.91 0 0 1 1.38-1.83l12.54-3.61a2.63 2.63 0 0 1 1.47 0l9.9 2.85a2.3 2.3 0 0 1 1.6 2.62z" fill="#ffdb56"></path><path d="m72.52 42.33-9.93 2.86a2.24 2.24 0 0 0 -1.59 2.16v1.71a2.25 2.25 0 0 0 2.25 2.25h6.56a2.23 2.23 0 0 0 1.8-.9l3.39-4.56a2.27 2.27 0 0 0 -2.48-3.52z" fill="#ffff79"></path><path d="m69.62 64.91-5.9-4.6a2 2 0 0 1 2.46-3.16l4.4 3.43 9.36-10.86a2 2 0 1 1 3 2.62l-10.57 12.3a2 2 0 0 1 -2.75.27z" fill="#ffbd38"></path><path d="m69.62 61.9-5.9-4.6a2 2 0 0 1 2.46-3.16l4.4 3.43 9.36-10.86a2 2 0 1 1 3 2.62l-10.57 12.3a2 2 0 0 1 -2.75.27z" fill="#12c58b"></path><rect fill="#ffdb56" height="2.46" rx=".6" width="3.86" x="63.49" y="47.15"></rect></g></svg>