<!-- icon666.com - MILLIONS vector ICONS FREE --><svg id="Capa_1" enable-background="new 0 0 512 512" viewBox="0 0 512 512" xmlns="http://www.w3.org/2000/svg"><path d="m512 256c0 141.38-114.62 256-256 256-11.72 0-23.25-.79-34.55-2.31-8.78-1.19-17.43-2.82-25.91-4.87-5.88-1.42-11.68-3.05-17.39-4.88-9.82-3.13-19.38-6.83-28.64-11.08-6.63-3.03-13.1-6.34-19.41-9.92-9.78-5.52-19.16-11.68-28.08-18.41-9.14-6.89-17.8-14.37-25.92-22.4-33.24-32.83-57.54-74.7-68.91-121.63-4.7-19.39-7.19-39.66-7.19-60.5 0-4.26.1-8.5.31-12.71 6.63-135.48 118.57-243.29 255.69-243.29 141.38 0 256 114.62 256 256z" fill="#ac80dd"></path><path d="m329.26 468.76c-12.34 8.28-25.44 15.52-39.18 21.57-10.65 4.7-21.68 8.7-33.03 11.92-11.56 3.29-23.44 5.79-35.6 7.44-44.44-6-85.27-23.4-119.43-49.16-9.14-6.89-17.8-14.37-25.92-22.4 2.45-1.66 4.95-3.22 7.52-4.7 10.2-5.87 21.3-10.34 33.03-13.15 1.81-.44 3.64-.84 5.48-1.19 3.47-.68 7-1.2 10.57-1.57 1.03-.11 2.05-.21 3.09-.29 3.38-.28 6.8-.42 10.26-.42h81.59c4.52 0 8.97.24 13.35.7 3.57.37 7.09.9 10.57 1.56 1.39.27 2.77.56 4.14.87.45.12.91.21 1.35.33 11.74 2.82 22.83 7.29 33.03 13.16 15.43 8.9 28.79 20.96 39.18 35.33z" fill="#efe7e4"></path><g fill="#e0d8d5"><path d="m146.05 416.81c-20.03 0-35.66 19.76-44.03 43.72-9.14-6.89-17.8-14.37-25.92-22.4 2.45-1.66 4.95-3.22 7.52-4.7 10.2-5.87 21.3-10.34 33.03-13.15 1.81-.44 3.64-.84 5.48-1.19 3.47-.68 7-1.2 10.57-1.57 1.03-.11 2.05-.21 3.09-.29 3.38-.28 6.8-.42 10.26-.42z"></path><path d="m186.84 468.11-37.33 20.75c-6.63-3.03-13.1-6.34-19.41-9.92l-12.37-61.36 32.92-14.4z"></path><path d="m186.84 468.111 52.994 29.451 16.121-79.986-32.928-14.393"></path></g><path d="m231.559 368.538v54.869c0 20.088-13.245 37.067-31.489 42.707-4.176 1.296-8.627 1.997-13.23 1.997-24.691 0-44.703-20.012-44.703-44.703v-54.869h89.422z" fill="#efb29a"></path><path d="m231.559 419.932v3.475c0 20.088-13.245 37.067-31.489 42.707-16.461-5.06-28.837-19.372-31.123-36.884 2.987.183 5.99.274 9.008.274 8.459 0 16.75-.671 24.828-1.997 9.953-1.6 19.57-4.161 28.776-7.575z" fill="#f9c5ac"></path><path d="m63.39 278.15c0 20.5-14.97 37.5-34.58 40.65-2.14.35-4.34.53-6.59.53-5.31 0-10.38-1-15.03-2.83-4.7-19.39-7.19-39.66-7.19-60.5 0-4.26.1-8.5.31-12.71 6.34-4 13.85-6.31 21.91-6.31 2.25 0 4.45.18 6.59.53 19.61 3.15 34.58 20.15 34.58 40.64z" fill="#f9c5ac"></path><path d="m63.393 278.153c0 20.497-14.973 37.492-34.579 40.646-3.562-12.95-5.464-26.579-5.464-40.646s1.902-27.696 5.464-40.646c19.607 3.154 34.579 20.15 34.579 40.646z" fill="#efb29a"></path><circle cx="22.219" cy="278.153" fill="#efb29a" r="14.716"></circle><path d="m310.303 278.153c0 20.497 14.973 37.492 34.579 40.646 2.143.347 4.347.528 6.596.528 22.746 0 41.175-18.429 41.175-41.175s-18.429-41.175-41.175-41.175c-2.249 0-4.453.181-6.596.528-19.607 3.156-34.579 20.152-34.579 40.648z" fill="#f9c5ac"></path><path d="m310.303 278.153c0 20.497 14.973 37.492 34.579 40.646 3.562-12.95 5.464-26.579 5.464-40.646s-1.902-27.696-5.464-40.646c-19.607 3.154-34.579 20.15-34.579 40.646z" fill="#efb29a"></path><circle cx="351.477" cy="278.153" fill="#efb29a" r="14.716"></circle><path d="m341.549 256.511c0 76.985-56.241 140.847-129.873 152.705-8.078 1.326-16.369 1.997-24.829 1.997-85.444 0-154.701-69.257-154.701-154.701v-157.5l309.403-28.05z" fill="#f9c5ac"></path><path d="m214.096 408.81c-.8.14-1.61.28-2.42.41-8.08 1.32-16.37 1.99-24.83 1.99-85.44 0-154.7-69.25-154.7-154.7v-157.5h54.55v157.5c0 76.14 54.98 139.41 127.4 152.3z" fill="#efb29a"></path><path d="m186.848 337.93c-12.954 0-25.908-3.246-37.716-9.737-3.331-1.831-4.546-6.015-2.715-9.346s6.016-4.545 9.346-2.715c19.465 10.701 42.707 10.7 62.17 0 3.329-1.831 7.514-.616 9.346 2.715 1.831 3.331.616 7.515-2.715 9.346-11.808 6.492-24.762 9.737-37.716 9.737z" fill="#dd9f8a"></path><path d="m204.397 291.694h-35.098c-4.181 0-7.57-3.389-7.57-7.57 0-4.181 3.389-7.57 7.57-7.57h35.098c4.181 0 7.57 3.389 7.57 7.57 0 4.18-3.389 7.57-7.57 7.57z" fill="#efb29a"></path><path d="m212.193 249.161c0 17.165 13.915 31.08 31.08 31.08s31.08-13.915 31.08-31.08z" fill="#efb29a"></path><circle cx="243.273" cy="249.161" fill="#2f373b" r="22.287"></circle><ellipse cx="252.561" cy="245.228" fill="#fff" rx="9.55" ry="9.55" transform="matrix(.16 -.987 .987 .16 -29.956 455.247)"></ellipse><path d="m99.343 249.161c0 17.165 13.915 31.08 31.08 31.08s31.08-13.915 31.08-31.08z" fill="#efb29a"></path><circle cx="130.423" cy="249.161" fill="#2f373b" r="22.287"></circle><path d="m135.635 270.831c-1.67.41-3.42.62-5.21.62-12.31 0-22.29-9.98-22.29-22.29s9.98-22.29 22.29-22.29c1.79 0 3.54.21 5.21.62-9.8 2.34-17.07 11.16-17.07 21.67s7.27 19.33 17.07 21.67z" fill="#181e21"></path><path d="m248.486 270.831c-1.67.41-3.42.62-5.21.62-12.31 0-22.29-9.98-22.29-22.29s9.98-22.29 22.29-22.29c1.79 0 3.54.21 5.21.62-9.8 2.34-17.07 11.16-17.07 21.67s7.27 19.33 17.07 21.67z" fill="#181e21"></path><circle cx="139.711" cy="245.228" fill="#fff" r="9.55"></circle><path d="m108.246 29.264h7.583c21.642 0 39.186 17.544 39.186 39.186v24.218c0 25.479-20.655 46.134-46.134 46.134h-76.735v-33.438c0-42.029 34.071-76.1 76.1-76.1z" fill="#985e33"></path><path d="m32.146 270.487v-131.686l30.356-15.297 12.637 15.297-12.709 104.852c-1.857 15.316-14.856 26.834-30.284 26.834z" fill="#985e33"></path><path d="m341.549 270.487v-199.525l-44.037 59.224 13.754 113.466c1.857 15.317 14.856 26.835 30.283 26.835z" fill="#b16e3d"></path><path d="m381.077 21.344h-194.05c-25.797 0-46.709 20.912-46.709 46.709v24.038c0 25.797 20.912 46.709 46.709 46.709h90.231c57.338 0 103.82-46.482 103.82-103.82v-13.636z" fill="#b16e3d"></path><path d="m195.54 468.11v36.71c-5.88-1.42-11.68-3.05-17.39-4.88v-31.83z" fill="#e0d8d5"></path><path d="m93.646 0h186.404v101.819h-186.404z" fill="#efe7e4"></path><path d="m93.646 0h46.671v101.819h-46.671z" fill="#e0d8d5"></path><path d="m222.495 34.668h-16.018c-2.919 0-5.285-2.366-5.285-5.285v-16.018c0-2.919-2.366-5.285-5.285-5.285h-18.117c-2.919 0-5.285 2.366-5.285 5.285v16.018c0 2.919-2.366 5.285-5.285 5.285h-16.018c-2.919 0-5.285 2.366-5.285 5.285v18.117c0 2.919 2.366 5.285 5.285 5.285h16.018c2.919 0 5.285 2.366 5.285 5.285v16.018c0 2.919 2.366 5.285 5.285 5.285h18.117c2.919 0 5.285-2.366 5.285-5.285v-16.017c0-2.919 2.366-5.285 5.285-5.285h16.018c2.919 0 5.285-2.366 5.285-5.285v-18.118c0-2.918-2.366-5.285-5.285-5.285z" fill="#da4a54"></path><path d="m482.5 375.39c-41.75 79.06-123.68 133.62-218.61 136.49-2.62.08-5.25.12-7.89.12-13.37 0-26.5-1.03-39.32-3l12.57-92.68 11.15-82.15s2.77-19.61 8.42-38.51c5.25-17.57 12.99-34.53 23.31-34.53 0 0 7.43 2.56 15.77 9.06 7.07 5.51 14.79 13.86 19.16 25.88 0 0 6.23-4.42 17.66-8.2 8.38-2.78 19.57-5.2 33.14-5.29.27-.01.53-.01.8-.01 32.55 0 51.59 13.5 51.59 13.5 4.37-12.02 12.09-20.37 19.16-25.88 8.33-6.5 15.77-9.06 15.77-9.06 10.33 0 18.07 16.96 23.31 34.53 5.66 18.9 8.42 38.51 8.42 38.51z" fill="#efe7e4"></path><path d="m357.86 282.58c-33.59.77-61.59 50.7-68.71 120.64-3.49 34.28-3.59 74.06-7.27 107.48-5.94.6-11.94 1-17.99 1.18-2.62.08-5.25.12-7.89.12-13.37 0-26.5-1.03-39.32-3l12.57-92.68 11.15-82.15s2.77-19.61 8.42-38.51c5.25-17.57 12.99-34.53 23.31-34.53 0 0 7.43 2.56 15.77 9.06 7.07 5.51 14.79 13.86 19.16 25.88 0 0 6.23-4.42 17.66-8.2 8.38-2.78 19.57-5.2 33.14-5.29z" fill="#e0d8d5"></path><path d="m229.255 416.319 11.148-82.149s10.293-73.037 31.728-73.037c0 0 25.399 8.735 34.924 34.931 0 0 6.236-4.414 17.661-8.194 6.242 47.119 42.86 128.449-95.461 128.449z" fill="#9b9595"></path><path d="m482.5 375.38v.01c-7.34 13.91-15.93 27.05-25.6 39.29-101.25-11.73-70.03-83.63-64.3-126.81 11.42 3.78 17.66 8.19 17.66 8.19 9.52-26.19 34.92-34.93 34.92-34.93 21.44 0 31.73 73.04 31.73 73.04z" fill="#9b9595"></path><path d="m368.23 366.27 8.93-15.467c4.255-7.369-1.064-16.581-9.573-16.581h-17.86c-8.51 0-13.828 9.212-9.573 16.581l8.93 15.467c4.254 7.369 14.891 7.369 19.146 0z" fill="#454045"></path><path d="m326.515 298.857c-18.679 20.253-32.634 57.891-37.364 104.362-.189 1.888-.372 3.796-.549 5.723-14.817 4.684-34.189 7.376-59.348 7.376l11.146-82.149s10.296-73.035 31.732-73.035c0 0 25.395 8.735 34.92 34.933 0 0 0 0 .007-.007.268-.189 6.481-4.495 17.653-8.186.464 3.489 1.091 7.161 1.803 10.983z" fill="#736e6e"></path><circle cx="304.684" cy="348.485" fill="#fff" r="18.464"></circle><circle cx="304.684" cy="348.485" fill="#454045" r="11.44"></circle><circle cx="412.629" cy="348.485" fill="#fff" r="18.464"></circle><circle cx="412.629" cy="348.485" fill="#454045" r="11.44"></circle><path d="m347.616 390.609c-8.713 0-15.802-7.089-15.802-15.803v-3.94c0-2.762 2.238-5 5-5s5 2.238 5 5v3.94c0 3.199 2.603 5.803 5.802 5.803s5.802-2.604 5.802-5.803v-20.403c0-2.762 2.238-5 5-5s5 2.238 5 5v20.403c0 8.715-7.089 15.803-15.802 15.803z" fill="#454045"></path><path d="m369.22 390.609c-8.713 0-15.802-7.089-15.802-15.803v-20.403c0-2.762 2.238-5 5-5s5 2.238 5 5v20.403c0 3.199 2.603 5.803 5.802 5.803s5.803-2.604 5.803-5.803v-3.94c0-2.762 2.238-5 5-5s5 2.238 5 5v3.94c-.001 8.715-7.089 15.803-15.803 15.803z" fill="#454045"></path><path d="m272.762 313.47c5.384-2.344 8.552-8.062 7.52-13.842-1.82-10.198-9.604-22.677-15.81-22.16-8.995.749-17.754 39.769-7.338 39.769 5.684.001 11.509-1.973 15.628-3.767z" fill="#595454"></path><path d="m444.551 313.47c-5.384-2.344-8.552-8.062-7.52-13.842 1.82-10.198 9.604-22.677 15.81-22.16 8.995.749 17.754 39.769 7.338 39.769-5.684.001-11.509-1.973-15.628-3.767z" fill="#595454"></path></svg>