<!-- icon666.com - MILLIONS vector ICONS FREE --><svg id="Layer_1" enable-background="new 0 0 512 512" viewBox="0 0 512 512" xmlns="http://www.w3.org/2000/svg"><g><path d="m441.007 253.376v-90.79c0-6.033-4.891-10.924-10.924-10.924h-129.814c-6.033 0-10.924-4.891-10.924-10.924v-129.814c0-6.033-4.891-10.924-10.925-10.924h-115.382c-6.033 0-10.924 4.891-10.924 10.924v129.814c0 6.033-4.891 10.924-10.924 10.924h-129.814c-6.033 0-10.924 4.891-10.924 10.924v115.382c0 6.033 4.891 10.924 10.924 10.924h129.814c6.033 0 10.924 4.891 10.924 10.924v129.814c0 6.033 4.891 10.924 10.924 10.924h89.451c2.883 0 5.649-1.14 7.695-3.17l177.594-176.254c2.066-2.051 3.229-4.842 3.229-7.754z" fill="#00cc71"></path><path d="m430.082 151.662h-129.813c-6.033 0-10.924-4.891-10.924-10.924v-129.814c0-6.033-4.891-10.924-10.925-10.924h-57.691v440.555h31.76c2.883 0 5.649-1.14 7.695-3.17l177.594-176.255c2.067-2.051 3.229-4.842 3.229-7.754v-90.79c0-6.033-4.891-10.924-10.925-10.924z" fill="#009954"></path><circle cx="376.278" cy="376.73" fill="#fff7c7" r="135.27"></circle><path d="m511.548 376.73c0-74.707-60.562-135.27-135.27-135.27v270.54c74.708 0 135.27-60.562 135.27-135.27z" fill="#ffea9e"></path><circle cx="325.753" cy="343.133" fill="#754726" r="15.922"></circle><circle cx="376.278" cy="321.498" fill="#754726" r="15.922"></circle><circle cx="428.714" cy="343.133" fill="#471d19" r="15.922"></circle><path d="m376.278 438.128c7.21 0 14.081 1.441 20.344 4.05 14.342 5.974 30.164-4.475 30.158-20.011 0-.902-.024-1.809-.073-2.721-1.407-26.552-23.668-47.67-50.257-47.759-27.97-.093-50.674 22.553-50.674 50.502 0 .124 0 .248.001.372.111 15.367 15.966 25.529 30.152 19.619 6.265-2.61 13.137-4.052 20.349-4.052z" fill="#754726"></path><g fill="#471d19"><path d="m392.2 321.498c0-8.794-7.129-15.922-15.922-15.922v31.845c8.794-.001 15.922-7.129 15.922-15.923z"></path><path d="m376.449 371.687c-.058 0-.114.004-.172.004v66.437c7.21 0 14.081 1.441 20.344 4.05 14.342 5.974 30.164-4.475 30.158-20.011 0-.902-.024-1.809-.073-2.721-1.406-26.553-23.667-47.671-50.257-47.759z"></path></g></g></svg>