<!-- icon666.com - MILLIONS vector ICONS FREE --><svg id="Layer_1" enable-background="new 0 0 64 64" viewBox="0 0 64 64" xmlns="http://www.w3.org/2000/svg" xmlns:xlink="http://www.w3.org/1999/xlink"><linearGradient id="lg1"><stop offset="0" stop-color="#806749"></stop><stop offset="1" stop-color="#a78966"></stop></linearGradient><linearGradient id="SVGID_1_" gradientUnits="userSpaceOnUse" x1="16.714" x2="43.283" xlink:href="#lg1" y1="47.78" y2="21.211"></linearGradient><linearGradient id="lg2"><stop offset="0" stop-color="#554431"></stop><stop offset="1" stop-color="#6a563d"></stop></linearGradient><linearGradient id="SVGID_2_" gradientUnits="userSpaceOnUse" x1="15.998" x2="43.998" xlink:href="#lg2" y1="29" y2="29"></linearGradient><linearGradient id="lg3"><stop offset="0" stop-color="#ffb655"></stop><stop offset="1" stop-color="#ffdaaa"></stop></linearGradient><linearGradient id="SVGID_3_" gradientUnits="userSpaceOnUse" x1="21.594" x2="38.402" xlink:href="#lg3" y1="38.142" y2="21.334"></linearGradient><linearGradient id="SVGID_4_" gradientUnits="userSpaceOnUse" x1="16.75" x2="36.078" xlink:href="#lg3" y1="17.164" y2="-2.164"></linearGradient><linearGradient id="SVGID_5_" gradientUnits="userSpaceOnUse" x1="27.922" x2="47.25" xlink:href="#lg3" y1="66.164" y2="46.836"></linearGradient><linearGradient id="SVGID_6_" gradientUnits="userSpaceOnUse" x1="27.963" x2="32.033" xlink:href="#lg1" y1="37.205" y2="33.135"></linearGradient><linearGradient id="SVGID_7_" gradientUnits="userSpaceOnUse" x1="24.88" x2="35.121" xlink:href="#lg3" y1="51.294" y2="41.053"></linearGradient><linearGradient id="SVGID_8_" gradientUnits="userSpaceOnUse" x1="19.069" x2="30.617" xlink:href="#lg1" y1="29.739" y2="18.19"></linearGradient><linearGradient id="SVGID_9_" gradientUnits="userSpaceOnUse" x1="28.998" x2="30.998" xlink:href="#lg2" y1="39.906" y2="39.906"></linearGradient><g><g><path d="m42.34 35.626c-.559-.626-1.135-1.27-1.671-1.961.219-.874.329-1.77.329-2.668 0-.716-.072-1.491-.222-2.334.66-.247 1.256-.629 1.758-1.131.944-.944 1.464-2.199 1.464-3.535s-.52-2.591-1.464-3.535c-1.364-1.365-5.092-3.431-7.599-3.431-.397 0-.761.051-1.087.15-2.515-1.571-5.184-1.573-7.7 0-.326-.1-.689-.15-1.087-.15-2.507 0-6.234 2.065-7.599 3.431-.944.943-1.465 2.199-1.465 3.535s.521 2.592 1.465 3.535c.501.501 1.097.883 1.756 1.13-.146.831-.221 1.613-.221 2.335 0 .857.104 1.72.311 2.572-.554.788-1.146 1.551-1.722 2.291-1.846 2.378-3.589 4.623-3.589 7.137 0 2.757 2.243 5 5 5h22c2.757 0 5-2.243 5-5 .001-3.279-1.858-5.359-3.657-7.371z" fill="url(#SVGID_1_)"></path><path d="m43.998 23.997c0-1.336-.52-2.591-1.464-3.535-1.364-1.365-5.092-3.431-7.599-3.431-.397 0-.761.051-1.087.15-2.515-1.571-5.184-1.573-7.7 0-.326-.1-.689-.15-1.087-.15-2.507 0-6.234 2.065-7.599 3.431-.944.943-1.465 2.199-1.465 3.535s.521 2.592 1.465 3.535c.501.501 1.097.883 1.756 1.13-.146.831-.221 1.613-.221 2.335 0 6.065 4.935 11 11 11s11-4.935 11-11c0-.716-.072-1.491-.222-2.334.66-.247 1.256-.629 1.758-1.131.945-.944 1.465-2.199 1.465-3.535z" fill="url(#SVGID_2_)"></path><path d="m29.998 15.997c-6.276 0-11 9.1-11 15 0 6.065 4.935 11 11 11s11-4.935 11-11c0-5.9-4.724-15-11-15z" fill="url(#SVGID_3_)"></path><path d="m46.121 7.879-7-7c-.566-.567-1.32-.879-2.121-.879h-27c-.553 0-1 .447-1 1v8c0 .553.447 1 1 1h11.586l3.707 3.707c.187.187.441.293.707.293h7c1.654 0 3-1.346 3-3s-1.346-3-3-3h-2c-.552 0-1-.448-1-1s.448-1 1-1h4.758l6.121 6.121c1.133 1.133 3.109 1.133 4.242 0 .566-.566.879-1.32.879-2.121 0-.802-.313-1.556-.879-2.121z" fill="url(#SVGID_4_)"></path><path d="m54 54h-11.586l-3.707-3.707c-.188-.188-.441-.293-.707-.293h-7c-1.654 0-3 1.346-3 3s1.346 3 3 3h2c.552 0 1 .448 1 1s-.448 1-1 1h-4.758l-6.121-6.121c-1.133-1.133-3.109-1.133-4.242 0-.567.566-.879 1.32-.879 2.121 0 .802.312 1.556.879 2.121l7 7c.566.567 1.32.879 2.121.879h27c.553 0 1-.447 1-1v-8c0-.553-.447-1-1-1z" fill="url(#SVGID_5_)"></path><path d="m30.507 32.997-.509.003-.509-.003c-.616 0-2.491 0-2.491 2.003 0 1.654 1.346 3 3 3s3-1.346 3-3c0-2.003-1.875-2.003-2.491-2.003z" fill="url(#SVGID_6_)"></path><path d="m34 42c-1.642 0-3.088.806-4 2.031-.912-1.225-2.358-2.031-4-2.031-2.757 0-5 2.243-5 5 0 .553.447 1 1 1h8 8c.553 0 1-.447 1-1 0-2.757-2.243-5-5-5z" fill="url(#SVGID_7_)"></path></g><path d="m19.068 29.738c.62.136 1.26.216 1.92.216 4.971 0 9-4.029 9-9 0-1.763-.519-3.398-1.394-4.787-5.149 1.126-8.984 8.2-9.526 13.571z" fill="url(#SVGID_8_)"></path><path d="m29.998 38c-.353 0-.686-.072-1-.185v4.131c.33.03.662.051 1 .051s.67-.021 1-.051v-4.131c-.314.113-.647.185-1 .185z" fill="url(#SVGID_9_)"></path></g></svg>