<!-- icon666.com - MILLIONS vector ICONS FREE --><svg id="Capa_1" enable-background="new 0 0 512 512" viewBox="0 0 512 512" xmlns="http://www.w3.org/2000/svg"><g><path d="m478.184 370.343c14.632-31.403 22.818-66.415 22.818-103.345 0-135.311-109.691-245.002-245.002-245.002s-245.002 109.691-245.002 245.002c0 36.929 8.186 71.941 22.818 103.345z" fill="#27a6ff"></path><path d="m255.884 40.888c-4.815 16.35-1.463 34.116 9.967 52.802 35.715 58.396 74.749 108.938 77.805 112.874.732 2.648 6.079 20.05 21.376 25.929 10.502 4.037 23.113 1.607 37.511-7.199-5.479-43.769-4.071-96.854-20.601-149.368-18.093-57.482-67.835-71.45-91.832-74.84-6.417 3.528-27.39 16.59-34.226 39.802z" fill="#2a428b"></path><path d="m404.388 237.977c-.787-4.649-1.454-9.431-2.045-14.32-45.621 28.357-57.318-17.775-57.318-17.775s-40.5-51.833-77.896-112.974 25.488-91.443 25.488-91.443c-9.548-1.54-15.805-1.464-15.805-1.464s-80.914-1.008-105.129 75.924c-18.161 57.699-14.665 116.09-22.446 162.052-4.797 28.338 14.94 55.068 43.389 59.156 20.276 2.913 47.577 5.002 84.186 5.002 36.608 0 63.91-2.088 84.186-5.002 28.45-4.088 48.187-30.818 43.39-59.156z" fill="#1d2e79"></path><path d="m195.459 176.621s-5.043-31.915.765-50.922c-5.27-3.513-15.452-5.228-20.031-.751-9.376 9.166-2.506 23.007.781 31.75 1.009 2.684 1.66 5.4 1.955 8.12.64 5.911 3.844 14.562 17.132 14.358-.201-.851-.406-1.689-.602-2.555z" fill="#fc9460"></path><path d="m377.433 124.948c-4.579-4.477-14.761-2.762-20.031.751 5.808 19.007.765 50.922.765 50.922-.196.866-.402 1.704-.603 2.555 13.288.204 16.493-8.447 17.133-14.358.294-2.72.945-5.436 1.955-8.12 3.287-8.743 10.157-22.584.781-31.75z" fill="#ffaa7b"></path><path d="m318.741 264.848c0-5.827 0-4.081 0-7.854-8.451 7.555-21.926 16.826-34.478 19.932-1.063 15.805-6.402 54.737-33.076 75.57-.03.024-.062.044-.092.067l25.717 49.605 58.626-113.082c-9.971-6.91-16.697-14.994-16.697-24.238z" fill="#ffaa7b"></path><path d="m276.813 277.995c-14.348-.347-31.77-11.918-41.929-21v7.854c0 9.244-6.726 17.328-16.697 24.24l33.182 64.004c.273-.199.549-.386.818-.596 26.823-20.949 32.072-60.199 33.093-75.831-2.886.787-5.732 1.263-8.467 1.329z" fill="#fc9460"></path><path d="m474.634 360.952c-15.408-30.815-42.45-39.419-54.771-41.786 0 0-20.795-3.794-43.525-11.287l-73.686 142.132h-1.21l.818 2s-7.285 37.021 25.414 49.329c66.762-20.399 121.41-68.544 150.509-130.998-1.1-3.683-2.281-6.852-3.549-9.39z" fill="#3ecd8d"></path><path d="m303.26 451.012-.497-1.215-.111.215h-51.679l-22.593-43.579c-4.052 7.569-9.895 14.715-17.784 21.122l1.353 1.175c24.519 21.289 39.313 51.299 41.286 83.235.922.01 1.841.035 2.766.035 25.678 0 50.43-3.959 73.686-11.286-33.868-11.915-26.427-49.702-26.427-49.702z" fill="#00b7a0"></path><ellipse cx="395.913" cy="439.124" fill="#e8f8fc" rx="36.954" ry="36.954" transform="matrix(.16 -.987 .987 .16 -100.959 759.585)"></ellipse><path d="m212.71 311.183c-1.161 5.012.136 10.627 3.386 14.653 19.117 23.683 26.451 55.35 11.706 81.655l22.563 43.521h.518l26.188-50.515-58.201-112.263c-.699-1.347-2.04-2.156-3.472-2.243.255 7.708-.633 16.311-2.688 25.192z" fill="#3ecd8d"></path><path d="m357.901 125.378-8.02-26.861c-1.557-5.214-6.567-8.592-11.989-8.123-19.285 1.666-39.801 2.572-61.079 2.591-3.808-.003-7.583-.045-11.34-.104-1.187 1.27-2.102 2.819-2.627 4.577l-8.118 27.186c-4.816 15.634-2.906 40.435-.898 52.012 5.564 24.366 13.623 45.611 23.95 63.149 7.08 12.022 16.626 22.231 28.096 30.184 11.996-7.995 21.95-18.436 29.248-30.83 10.204-17.328 18.166-38.318 23.663-62.392 1.985-11.438 3.872-35.942-.886-51.389z" fill="#ffc7ab"></path><g><path d="m278.126 239.159c-10.203-17.328-18.166-38.318-23.663-62.392-1.984-11.438-3.871-35.942.887-51.389l8.02-26.861c.68-2.276 2.017-4.201 3.759-5.61-17.824-.243-35.055-1.102-51.396-2.514-5.421-.468-10.432 2.909-11.989 8.123l-8.02 26.861c-4.758 15.447-2.871 39.951-.887 51.389 5.497 24.074 13.459 45.065 23.663 62.392 10.359 17.589 26.046 31.27 45.366 39.564 4.119 1.767 8.526 2.684 12.946 2.768 4.421-.085 8.827-1.001 12.946-2.768 5.989-2.571 11.626-5.661 16.866-9.223-11.664-7.929-21.35-18.203-28.498-30.34z" fill="#ffaa7b"></path></g><g><path d="m395.762 450.717c-6.627 0-12-5.373-12-12v-121.944c0-2.316-.413-4.572-1.227-6.705-2.363-6.191.739-13.127 6.931-15.491 6.19-2.36 13.129.74 15.491 6.931 1.861 4.877 2.806 10.013 2.806 15.266v121.944c-.001 6.626-5.374 11.999-12.001 11.999z" fill="#3f57a0"></path></g><path d="m301.42 352.533-51.055 98.479h52.895l40.339-77.81c-29.005 9.406-39.14-11.221-42.179-20.669z" fill="#95db76"></path><path d="m219.935 505.048c-.365-6.225 11.359-12.917 30.754-17.642-1.437-5.246-3.239-10.343-5.34-15.285l-.166.055c-20.559 4.857-35.259 4.285-37.514-1.479-2.102-5.368 6.602-14.636 22.783-24.355-5.408-7.16-11.586-13.711-18.41-19.523-23.403 14.251-50.294 23.198-78.565 23.198-17.533 0-34.401-3.38-50.19-9.259 6.181 6.143 12.698 11.946 19.503 17.407 3.996-3.457 8.277-6.277 12.783-8.33 5.879.768 11.85 1.182 17.904 1.182 6.028 0 11.99-.421 17.871-1.198 17.789 8.086 32.133 27.906 38.808 53.205 10.562 2.94 21.412 5.189 32.496 6.701-1.679-1.47-2.622-3.039-2.717-4.677z" fill="#ffc242"></path><path d="m115.573 448.835c-4.734 2.157-9.223 5.15-13.39 8.851 25.663 20.727 55.589 36.379 88.264 45.431-6.546-25.823-21.052-46.096-39.098-54.298-5.882.778-11.844 1.198-17.871 1.198-6.055 0-12.026-.415-17.905-1.182z" fill="#fef156"></path><path d="m202.299 370.145c0-5.446 11.904-11.15 31.562-14.249-3.308-11.051-9.002-21.591-16.598-31.002-2.551-3.161-4.098-7.882-3.232-12.665l-.314-43.966c-2.508-6.564-6.432-11.106-11.63-12.646-11.121-3.295-24.843 8.059-34.753 26.996-2.023 3.867-6.39 5.961-10.652 5.022-9.385-2.069-19.158-2.903-29.043-2.366-3.569 3.889-8.326 9.759-12.21 16.967-9.495 17.627-9.53 35.239-.106 50.958-.271 1.32-1.081 5.926-.409 11.204 1.026 8.062 5.061 13.838 11.685 16.738.396 1.908 2.03 9.196 5.387 17.207 3.511 8.376 9.661 19.239 19.205 24.188-1.519 2.622-5.451 10.639-2.697 19.403.91 2.896 2.459 5.568 4.631 8.011 25.054-2.789 46.905-11.005 62.037-24.196-11.708-6.756-17.781-13.231-16.565-17.418 1.091-3.755 8.109-5.929 19.288-5.929 4.138 0 8.857.305 14.047.931 2.506-5.692 4.158-11.865 4.844-18.506-21.391-2.978-34.477-8.972-34.477-14.682z" fill="#fef156"></path><path d="m152.491 422.156c-18.981-8.881-25.095-41.672-25.095-41.672-16.068-6.604-11.107-27.451-11.107-27.451-18.112-29.769 2.798-57.339 12.63-67.823-6.188.262-12.425 1.052-18.644 2.423-4.262.94-8.629-1.155-10.652-5.022-9.91-18.938-23.632-30.291-34.753-26.996-5.198 1.54-9.122 6.081-11.63 12.645l-.314 43.968c.859 4.748-.657 9.473-3.233 12.664-7.596 9.411-13.29 19.951-16.598 31.002 19.657 3.099 31.562 8.803 31.562 14.249 0 5.71-13.086 11.705-34.477 14.682.686 6.641 2.338 12.815 4.844 18.506 19.208-2.317 31.84-.148 33.334 4.998 1.216 4.187-4.857 10.662-16.564 17.418 18.974 16.541 48.508 25.268 81.683 25.268 7.114 0 14.059-.404 20.77-1.198-11.9-12.714-1.756-27.661-1.756-27.661z" fill="#ffc242"></path><g><path d="m151.12 426.216c-13.081 0-23.724-10.643-23.724-23.724v-7.002c0-3.359 2.723-6.082 6.082-6.082s6.082 2.723 6.082 6.082v7.002c0 6.374 5.186 11.56 11.56 11.56 4.442 0 8.541-2.594 10.444-6.607l4.443-9.369c1.439-3.034 5.065-4.328 8.101-2.89 3.035 1.439 4.329 5.066 2.89 8.102l-4.443 9.369c-3.905 8.236-12.319 13.559-21.435 13.559z" fill="#fc753f"></path></g><g><path d="m115.837 426.216c-9.115 0-17.53-5.323-21.436-13.56l-4.443-9.369c-1.439-3.035-.145-6.662 2.89-8.102 3.033-1.438 6.662-.146 8.101 2.89l4.443 9.369c1.903 4.013 6.002 6.607 10.444 6.607 6.374 0 11.559-5.186 11.559-11.56v-7.002c0-3.359 2.723-6.082 6.082-6.082s6.082 2.723 6.082 6.082v7.002c.001 13.082-10.641 23.725-23.722 23.725z" fill="#fc753f"></path></g><path d="m122.105 374.902c-4.54 0-8.539 3.555-8.539 8.19 0 7.649 8.915 18.306 19.912 18.306 10.803 0 19.987-10.506 19.913-18.398-.043-4.546-3.993-8.097-8.538-8.097h-22.748z" fill="#fc753f"></path><g><path d="m115.468 366.567c-3.055 0-5.687-2.296-6.036-5.402-.452-4.018-3.846-7.047-7.894-7.047s-7.442 3.029-7.894 7.047c-.376 3.337-3.38 5.742-6.724 5.363-3.338-.376-5.739-3.386-5.363-6.724 1.145-10.176 9.736-17.85 19.982-17.85s18.837 7.674 19.982 17.85c.376 3.338-2.025 6.348-5.363 6.724-.233.026-.462.039-.69.039z" fill="#fc753f"></path></g><g><path d="m179.351 366.567c-3.055 0-5.687-2.296-6.036-5.402-.452-4.018-3.846-7.047-7.894-7.047s-7.442 3.029-7.894 7.047c-.376 3.337-3.38 5.742-6.724 5.363-3.338-.376-5.739-3.386-5.363-6.724 1.145-10.176 9.736-17.85 19.982-17.85s18.837 7.674 19.982 17.85c.376 3.338-2.025 6.348-5.363 6.724-.233.026-.462.039-.69.039z" fill="#fc753f"></path></g><g fill="#fea53d"><path d="m197.675 408.063c-1.431 4.927 5.118 11.635 16.713 18.345 7.898-6.698 14.036-14.711 17.934-23.979-19.088-2.349-32.861-.516-34.647 5.634z"></path><path d="m201.338 370.145c0 6.804 14.357 12.7 35.335 15.615.306-2.603.469-5.275.469-8.023 0-7.7-1.252-15.342-3.563-22.748-19.282 3.047-32.241 8.691-32.241 15.156z"></path><path d="m69.283 408.063c-1.786-6.15-15.558-7.983-34.647-5.634 3.899 9.268 10.037 17.281 17.934 23.979 11.595-6.71 18.144-13.418 16.713-18.345z"></path><path d="m65.62 370.145c0-6.464-12.958-12.109-32.241-15.156-2.311 7.406-3.563 15.048-3.563 22.748 0 2.748.163 5.42.469 8.023 20.978-2.916 35.335-8.811 35.335-15.615z"></path><path d="m52.788 311.521c.055.236.097.472.14.708 4.821 7.287 11.321 11.357 17.264 9.915 9.07-2.201 13.41-16.403 9.693-31.72-3.717-15.318-14.083-25.951-23.153-23.75-1.259.305-2.423.85-3.491 1.588-4.019 10.522-4.388 26.257-.453 43.259z"></path></g><path d="m196.766 322.144c5.944 1.442 12.444-2.628 17.265-9.915.043-.236.085-.471.14-.707 3.935-17.002 3.566-32.737-.454-43.259-1.068-.739-2.232-1.283-3.491-1.589-9.07-2.201-19.436 8.433-23.153 23.75s.622 29.519 9.693 31.72z" fill="#ffc242"></path><g fill="#fea53d"><path d="m250.553 486.924c-19.137 4.664-31.515 11.378-31.118 18.153.094 1.603.906 3.119 2.338 4.531 10.781 1.511 21.787 2.32 32.972 2.376-.518-8.62-1.95-17.005-4.192-25.06z"></path><path d="m207.203 470.88c2.471 6.313 17.886 6.591 38.371 1.715-4.014-9.56-9.223-18.505-15.431-26.654-15.9 9.561-25.222 19.108-22.94 24.939z"></path></g><path d="m369.636 297.339-29.689-11.102c-1.987-.743-4.216.115-5.193 1.998l-34.148 65.867c3.278 9.743 13.695 29.589 42.574 19.908l32.118-61.952c2.91-5.612.258-12.505-5.662-14.719z" fill="#baee63"></path></g></svg>