<!-- icon666.com - MILLIONS vector ICONS FREE --><svg id="Capa_1" enable-background="new 0 0 511.998 511.998" viewBox="0 0 511.998 511.998" xmlns="http://www.w3.org/2000/svg"><g><path d="m480.263 381.281c18.029-34.123 28.253-73.007 28.253-114.285 0-135.311-109.691-245.002-245.002-245.002s-245.002 109.691-245.002 245.002c0 41.278 10.223 80.162 28.253 114.285z" fill="#27a6ff"></path><path d="m282.335 297.097c-3.095.497-6.24.756-9.408.756-13.156 0-25.93-4.366-36.281-12.405-5.313-4.126-10.874-9.288-16.172-15.458-.059 1.728-.155 3.553-.296 5.44 15.885 12.31 28.288 30.015 37.295 47.935 7.162 14.25 6.423 32.121-1.883 45.527-4.092 5.75-6.153 11.078-9.508 14.494l26.845 51.781 37.869-73.045c-27.115-16.997-28.511-56.035-28.461-65.025z" fill="#fc9460"></path><path d="m330.503 299.607c-3.62-9.578-4.821-20.829-5.124-29.617-5.298 6.171-10.858 11.333-16.171 15.458-8.126 6.311-17.748 10.346-27.874 11.794-.034 9.335 1.516 48.689 29.222 65.343l27.285-52.63c-3.239-2.744-5.797-6.273-7.338-10.348z" fill="#ffaa7b"></path><path d="m419.377 345.222c-6.769-.553-10.37-3.179-18.347-7.677-7.022-3.96-14.092-7.536-21.271-10.759l-80.993 156.224h-.914l.522 1s-5.379 13.689 7.193 24.385c75.935-13.139 139.887-61.235 174.695-127.114-11.731-18.769-30.621-33.585-60.885-36.059z" fill="#3ecd8d"></path><path d="m299.375 484.01-.566-1.083-.043.083h-51.679l-32.94-63.537c-11.151 11.923-24.964 18.61-26.426 19.798.494.741 13.342 23.251 36.884 50.357 4.596 5.291 10.567 13.366 14.947 21.203 7.885.765 15.875 1.168 23.961 1.168 14.632 0 28.963-1.284 42.888-3.744-12.36-10.676-7.026-24.245-7.026-24.245z" fill="#00b7a0"></path><path d="m366.113 58.746c-13.514-31.779-38.592-46.787-62.808-53.572-13.119 4.963-54.814 24.6-25.721 65.323 26.578 37.203 9.92 70.113-3.471 87.582h94.248c6.504-26.522 11.815-66.264-2.248-99.333z" fill="#2a428b"></path><path d="m278.584 70.498c-28.78-40.286 11.716-59.937 25.291-65.16-24.713-7.053-48.633-5.483-58.575-4.341-2.059.236-3.092 2.585-1.921 4.294 11.756 17.162-34.301 1.613-59.334 54.123-15.866 33.28-11.879 72.462-6.079 98.667h97.146c13.392-17.471 30.05-50.381 3.472-87.583z" fill="#1d2e79"></path><path d="m372.183 154.718c-4.103-3.76-13.276-1.854-16.81.448.774 4.821.818 9.753.149 14.623l-4.17 30.372c0 2.448-.077 4.85-.219 7.211 10.169 3.067 16.22-6.062 17.071-12.327.366-2.697.965-5.355 1.796-7.949 2.705-8.447 12.463-22.957 2.183-32.378z" fill="#ffaa7b"></path><path d="m173.671 154.718c4.103-3.76 13.276-1.854 16.81.448-.774 4.821-.818 9.753-.149 14.623l4.17 30.372c0 2.448.077 4.85.219 7.211-10.169 3.067-16.22-6.062-17.071-12.327-.366-2.697-.965-5.355-1.796-7.949-2.705-8.447-12.463-22.957-2.183-32.378z" fill="#fc9460"></path><path d="m350.251 138.516c-4.621-7.249-3.09-13.17-3.015-20.103 0 0 3.897-31.917-35.411-43.25-9.536-2.749-22.36-4.57-35.947-4.717-13.986 7.901-23.579 20.393-23.579 39.107 0 7.595 1.652 13.528-3.051 21.228-5.072 8.303-8.022 20.279-6.347 33.015l4.221 32.078c0 46.117 23.59 77.462 43.657 93.723 2.633 2.133 5.431 3.997 8.342 5.627 3.549-1.749 6.932-3.853 10.088-6.304 19.831-15.4 43.145-45.085 43.145-88.758l4.17-30.372c1.642-11.966-1.21-23.331-6.273-31.274z" fill="#ffc7ab"></path><path d="m290.89 288.381c-19.831-16.07-43.145-47.048-43.145-92.623l-4.171-31.702c-1.656-12.587 1.26-24.422 6.272-32.628 4.648-7.609 3.015-13.473 3.015-20.979 0-19.557 10.598-32.241 25.722-39.952-36.549-.997-79.966 9.972-79.966 47.916 0 7.192 1.632 12.812-3.015 20.104-5.012 7.863-7.928 19.205-6.272 31.267l4.171 30.379c0 43.674 23.313 73.359 43.145 88.758 10.351 8.038 23.125 12.404 36.281 12.404 9.601 0 18.995-2.335 27.396-6.716-3.309-1.756-6.473-3.829-9.433-6.228z" fill="#ffaa7b"></path><path d="m246.479 484.01h.519l26.189-50.515-26.381-50.886c-1.752 2.031-3.823 3.517-6.771 4.201-6.289 1.461-10.323-2.473-11.538-3.018l.002 2.895c0 13.875-6.93 25.083-15.081 33.549z" fill="#3ecd8d"></path><path d="m301.923 377.064-55.444 106.946h52.895l43.5-83.905c-29.655 8.594-38.755-15.006-40.951-23.041z" fill="#95db76"></path><path d="m225.738 488.643c-20.955-24.128-33.932-44.59-41.525-58.562-14.762 9.895-32.149 16.26-50.518 16.26-18.573 0-35.899-6.37-50.541-16.214-.296.543-.615 1.115-.927 1.678 39.943 43.911 95.626 73.236 158.129 79.097-4.269-8.33-9.107-15.914-14.618-22.259z" fill="#c47a51"></path><path d="m229.983 385.212c-1.168-1.002-2.242-2.199-3.15-3.647-12.215-19.481-22.204-57.974-30.274-76.088-3.668-8.235-4.561-15.614-4.065-21.855.06-.76.17-1.494.308-2.213-1.588-1.342-3.215-2.605-4.883-3.779-5.754-4.05-11.661-7.09-17.362-9.371-2.206-.883-3.464-3.134-3.245-5.5.21-2.279-.266-4.329-1.525-5.913-2.568-3.229-7.748-3.726-13.424-1.819-1.905.64-3.752-1.071-3.265-3.021 1.817-7.279.684-13.655-3.538-16.308-6.31-3.965-17.122 1.887-24.151 13.07-2.037 3.242-3.531 6.575-4.473 9.772-.778 2.64-2.89 4.653-5.577 5.25-.683.152-1.378.317-2.08.489-2.354 2.952-7.83 10.532-10.957 20.642-3.686 11.916-4.588 29.603 11.994 46.283l5.422 10.013c-.955 1.986-3.453 8.144-1.002 13.97 1.324 3.148 3.857 5.639 7.544 7.45 3.693-1.328 7.515-2.059 11.417-2.059 28.225 0 53.339 38.736 53.339 69.269 0 4.486-.72 8.745-2 12.585 22.967-12.138 44.961-30.383 44.961-55.744.001-.497-.011-.982-.014-1.476z" fill="#d38f62"></path><path d="m79.472 277.629c-1.668 1.174-3.295 2.437-4.883 3.779.138.719.248 1.453.309 2.213.496 6.241-.396 13.62-4.065 21.855-8.07 18.114-18.058 56.607-30.274 76.088-.907 1.448-1.982 2.644-3.15 3.647-.003.494-.014.979-.014 1.475 0 25.361 21.993 43.605 44.959 55.743-1.252-3.743-1.967-7.882-1.996-12.237-.177-26.311 19.146-60.715 43.723-68.154-15.039-6.309-6.889-20.841-6.889-20.841l-5.832-10.771c-31.487-31.487 0-66.638 0-66.638-9.553 2.125-20.994 6.174-31.888 13.841z" fill="#c47a51"></path><path d="m133.697 359.722c-4.257 0-8.421.848-12.43 2.383 1.747.977 3.783 1.784 6.116 2.412 7.548 2.031 7.628 8.026 7.119 18.445-.56 11.471-1.253 25.674 14.621 34.956-2.13 3.018-6.986 11.205-5.096 20.939 1.166 6.007 4.689 11.461 10.492 16.302 2.738-.738 5.456-1.606 8.138-2.639 7.39-2.845 15.5-6.387 23.454-10.663 1.139-3.674 1.78-7.72 1.78-12.011-.001-29.301-24.264-70.124-54.194-70.124z" fill="#fadcac"></path><path d="m104.735 452.521c16.592 6.389 34.424 7.122 51.305 2.22-21.718-17.391-5.002-37.223-5.002-37.223-29.887-16.064-3.409-48.884-23.321-54.242-1.845-.497-3.437-1.092-4.81-1.761-24.472 8.124-43.582 42.236-43.404 68.684.028 4.147.665 8.075 1.777 11.658 7.955 4.277 16.065 7.819 23.455 10.664z" fill="#e0a579"></path><path d="m52.322 269.926c10.155-6.626 23.267.564 24.311 13.696.496 6.241-.396 13.62-4.065 21.855-8.07 18.114-18.058 56.607-30.274 76.088-5.968 9.518-18.58 9.405-24.499-.151l-7.268-11.731c-8.641-13.947-9.383-32.196-1.947-46.992 8.697-17.305 22.921-39.18 43.742-52.765z" fill="#d38f62"></path><path d="m252.516 311.196c-8.738-14.711-21.035-30.563-37.445-41.27-10.155-6.626-23.268.564-24.311 13.696-.496 6.241.396 13.62 4.065 21.855 5.623 12.622 12.179 35.134 19.77 54.219-2.93-42.69 21.605-48.955 37.921-48.5z" fill="#eeb88b"></path><g><path d="m151.038 417.519c-12.859 0-23.321-10.462-23.321-23.321v-6.883c0-3.302 2.677-5.979 5.979-5.979s5.979 2.677 5.979 5.979v6.883c0 6.266 5.098 11.363 11.363 11.363 4.366 0 8.396-2.55 10.267-6.495l4.367-9.21c1.415-2.983 4.979-4.255 7.964-2.841 2.984 1.415 4.255 4.98 2.841 7.964l-4.367 9.21c-3.84 8.097-12.112 13.33-21.072 13.33z" fill="#9e533b"></path></g><g><path d="m116.354 417.519c-8.961 0-17.232-5.232-21.071-13.329l-4.367-9.21c-1.415-2.983-.143-6.549 2.841-7.964 2.982-1.414 6.549-.143 7.964 2.841l4.367 9.21c1.871 3.945 5.9 6.495 10.267 6.495 6.266 0 11.363-5.098 11.363-11.363v-6.883c0-3.302 2.677-5.979 5.979-5.979s5.979 2.677 5.979 5.979v6.883c-.002 12.858-10.463 23.32-23.322 23.32z" fill="#9e533b"></path></g><path d="m119.661 356.413c-5.602 0-10.537 4.387-10.537 10.106 0 9.439 11.001 22.589 24.572 22.589 13.33 0 24.664-12.964 24.572-22.703-.053-5.609-4.927-9.992-10.536-9.992z" fill="#9e533b"></path><g><path d="m115.991 347.572c-3.003 0-5.59-2.257-5.934-5.311-.445-3.949-3.781-6.927-7.76-6.927s-7.316 2.978-7.76 6.927c-.369 3.28-3.323 5.644-6.61 5.272-3.281-.37-5.642-3.329-5.272-6.61 1.126-10.003 9.57-17.547 19.643-17.547 10.072 0 18.517 7.543 19.643 17.547.369 3.281-1.991 6.24-5.272 6.61-.229.026-.454.039-.678.039z" fill="#9e533b"></path></g><g><path d="m178.789 347.572c-3.003 0-5.59-2.257-5.934-5.311-.445-3.949-3.781-6.927-7.76-6.927s-7.316 2.978-7.76 6.927c-.369 3.28-3.322 5.644-6.61 5.272-3.281-.37-5.642-3.329-5.272-6.61 1.126-10.003 9.57-17.547 19.643-17.547 10.072 0 18.517 7.543 19.643 17.547.37 3.281-1.991 6.24-5.272 6.61-.229.026-.454.039-.678.039z" fill="#9e533b"></path></g><path d="m249.598 381.414 7.268-11.731c8.641-13.947 9.383-32.196 1.947-46.992-1.973-3.927-4.248-8.094-6.803-12.342-16.112-.547-40.608 5.354-38.363 46.934 3.579 9.229 7.392 17.808 11.452 24.282 5.967 9.518 18.579 9.405 24.499-.151z" fill="#fadcac"></path><circle cx="393.942" cy="456.763" fill="#e8f8fc" r="36.954"></circle><g><path d="m393.791 468.356c-6.627 0-12-5.373-12-12v-121.945c0-2.316-.413-4.572-1.228-6.705-2.363-6.191.739-13.127 6.931-15.491 6.19-2.36 13.129.74 15.491 6.931 1.861 4.877 2.806 10.013 2.806 15.266v121.944c0 6.627-5.373 12-12 12z" fill="#3f57a0"></path></g><path d="m376.436 318.538-28.093-14.611c-3.697-1.923-8.254-.481-10.172 3.219l-37.079 71.521c2.49 8.601 11.96 31.118 41.35 22.27l37.3-71.948c1.971-3.8.491-8.477-3.306-10.451z" fill="#baee63"></path></g></svg>