<!-- icon666.com - MILLIONS vector ICONS FREE --><svg viewBox="-3 0 512 512.00001" xmlns="http://www.w3.org/2000/svg"><path d="m355.203125 418.121094c-20.984375 0-38.058594 17.074218-38.058594 38.058594 0 4.203124 3.410157 7.609374 7.613281 7.609374 4.203126 0 7.609376-3.40625 7.609376-7.609374 0-12.589844 10.246093-22.835938 22.835937-22.835938h20.296875l31.460938-15.222656zm0 0" fill="#4f4f4f"></path><path d="m436.390625 402.898438v101.488281c0 4.207031 3.410156 7.613281 7.613281 7.613281s7.613282-3.40625 7.613282-7.613281v-101.488281zm0 0" fill="#353535"></path><path d="m405.945312 402.898438v101.488281c0 4.207031 3.410157 7.613281 7.613282 7.613281s7.609375-3.40625 7.609375-7.613281v-101.488281zm0 0" fill="#4f4f4f"></path><path d="m91.339844 0-30.449219 78.652344 30.449219 78.652344h30.445312v-157.304688zm0 0" fill="#002f42"></path><path d="m0 0h91.339844v157.304688h-91.339844zm0 0" fill="#084f6d"></path><g fill="#353535"><path d="m478.277344 377.011719-10.425782-1.738281-20.296874 29.039062 20.296874 29.035156c0 16.816406 13.632813 30.445313 30.449219 30.445313v-63.144531c0-11.164063-9.011719-21.800782-20.023437-23.636719zm0 0"></path><path d="m383.113281 288.726562c-4.207031 0-7.613281 3.40625-7.613281 7.609376v15.226562l15.222656 20.296875v-35.523437c0-4.203126-3.40625-7.609376-7.609375-7.609376zm0 0"></path><path d="m413.558594 288.726562c-4.207032 0-7.613282 3.40625-7.613282 7.609376v35.523437l15.222657-20.296875v-15.226562c0-4.203126-3.40625-7.609376-7.609375-7.609376zm0 0"></path></g><path d="m436.183594 370.199219c-8.257813-1.375-15.015625-9.351563-15.015625-17.722657v-40.914062h-45.667969v121.785156h92.351562v-58.074218zm0 0" fill="#4f4f4f"></path><path d="m76.113281 180.140625c-4.195312 0-7.609375-3.414063-7.609375-7.613281 0-4.199219 3.414063-7.613282 7.609375-7.613282 4.207031 0 7.613281-3.40625 7.613281-7.609374 0-4.203126-3.40625-7.613282-7.613281-7.613282-12.589843 0-22.832031 10.246094-22.832031 22.835938s10.242188 22.835937 22.832031 22.835937h137.007813v-15.222656zm0 0" fill="#dbf4ff"></path><path d="m68.503906 113.554688v-19.679688c0-4.203125-3.410156-7.613281-7.613281-7.613281s-7.609375 3.410156-7.609375 7.613281v19.679688l-7.917969 7.921874c-2.972656 2.972657-2.972656 7.789063 0 10.761719 2.972657 2.972657 7.789063 2.972657 10.761719 0l4.765625-4.765625 4.769531 4.765625c1.484375 1.488281 3.433594 2.230469 5.378906 2.230469 1.949219 0 3.898438-.742188 5.382813-2.230469 2.972656-2.972656 2.972656-7.789062 0-10.761719zm0 0" fill="#fff"></path><path d="m53.28125 43.746094v19.683594c0 4.203124 3.40625 7.609374 7.609375 7.609374s7.613281-3.40625 7.613281-7.609374v-19.683594l7.917969-7.917969c2.972656-2.972656 2.972656-7.792969 0-10.765625-2.972656-2.96875-7.792969-2.96875-10.761719 0l-4.769531 4.769531-4.765625-4.769531c-2.972656-2.96875-7.792969-2.96875-10.761719 0-2.972656 2.976562-2.972656 7.792969 0 10.765625zm0 0" fill="#fff"></path><path d="m274.015625 296.847656h-7.613281v-15.222656h7.613281c23.78125 0 43.128906-19.347656 43.128906-43.132812 0-23.78125-19.347656-43.128907-43.128906-43.128907h-7.613281v-15.222656h7.613281c32.175781 0 58.351563 26.175781 58.351563 58.351563 0 32.179687-26.175782 58.355468-58.351563 58.355468zm0 0" fill="#a8e5ff"></path><path d="m235.957031 22.835938c0 12.609374-10.222656 22.832031-22.835937 22.832031-12.609375 0-22.832032-10.222657-22.832032-22.832031 0-12.613282 10.222657-22.835938 22.832032-22.835938 12.613281 0 22.835937 10.222656 22.835937 22.835938zm0 0" fill="#60312c"></path><path d="m213.121094 45.667969v91.339843c25.222656 0 45.667968-20.449218 45.667968-45.667968 0-25.222656-20.445312-45.671875-45.667968-45.671875zm0 0" fill="#ffb4a9"></path><path d="m228.34375 91.339844c0-25.222656-6.816406-45.671875-15.222656-45.671875-25.222656 0-45.667969 20.449219-45.667969 45.671875 0 25.21875 20.445313 45.667968 45.667969 45.667968 8.40625 0 15.222656-20.449218 15.222656-45.667968zm0 0" fill="#ffd9d4"></path><path d="m228.34375 107.074219c-5.519531 0-10.832031-1.753907-15.222656-4.882813-4.390625 3.128906-9.699219 4.882813-15.222656 4.882813-4.203126 0-7.609376-3.410157-7.609376-7.613281 0-4.203126 3.40625-7.613282 7.609376-7.613282 3.570312 0 6.933593-1.75 9-4.679687 1.425781-2.027344 3.746093-3.234375 6.222656-3.234375 2.476562 0 4.800781 1.207031 6.226562 3.234375 2.0625 2.933593 5.425782 4.679687 8.996094 4.679687 4.203125 0 7.613281 3.410156 7.613281 7.613282 0 4.203124-3.410156 7.613281-7.613281 7.613281zm0 0" fill="#60312c"></path><path d="m175.0625 289.238281v199.511719l-25.238281 8.414062c-3.988281 1.332032-6.140625 5.640626-4.8125 9.628907s5.640625 6.144531 9.625 4.8125l30.445312-10.148438c3.109375-1.035156 5.203125-3.941406 5.203125-7.21875v-205zm0 0" fill="#696969"></path><path d="m251.179688 289.238281v199.511719l25.238281 8.414062c3.988281 1.332032 6.144531 5.640626 4.816406 9.628907-1.332031 3.988281-5.640625 6.144531-9.628906 4.8125l-30.445313-10.148438c-3.105468-1.035156-5.203125-3.941406-5.203125-7.21875v-205zm0 0" fill="#4f4f4f"></path><path d="m182.675781 289.238281h76.113281v91.335938l-22.832031 15.222656h-22.835937zm0 0" fill="#7dd9ff"></path><path d="m213.121094 289.238281h-45.667969v91.335938l22.835937 15.222656h22.832032zm0 0" fill="#a8e5ff"></path><path d="m192.824219 258.789062 20.296875 76.117188c25.222656 0 45.667968-20.445312 45.667968-45.667969zm0 0" fill="#4f4f4f"></path><path d="m167.453125 289.238281c0 25.222657 20.445313 45.667969 45.667969 45.667969v-76.117188zm0 0" fill="#696969"></path><path d="m243.566406 167.453125h-30.445312l-20.296875 60.890625 20.296875 60.894531h48.207031zm0 0" fill="#49c9ff"></path><path d="m213.121094 167.453125h-30.445313l-15.222656 121.785156h45.667969zm0 0" fill="#7dd9ff"></path><path d="m172.535156 167.453125c-11.210937 0-20.304687 9.085937-20.304687 20.296875v208.046875h38.058593v-208.046875l-7.613281-20.296875zm0 0" fill="#dbf4ff"></path><path d="m253.714844 167.453125h-10.148438l-7.609375 20.296875v208.046875h38.058594v-208.046875c0-11.207031-9.089844-20.296875-20.300781-20.296875zm0 0" fill="#a8e5ff"></path><path d="m243.566406 159.839844c-4.203125 0-7.609375 3.410156-7.609375 7.613281v20.296875c0 12.589844-10.246093 22.835938-22.835937 22.835938s-22.832032-10.246094-22.832032-22.835938v-20.296875c0-4.203125-3.410156-7.613281-7.613281-7.613281s-7.613281 3.410156-7.613281 7.613281v20.296875c0 18.378906 13.097656 33.753906 30.449219 37.292969v33.746093c0 4.207032 3.40625 7.613282 7.609375 7.613282 4.207031 0 7.613281-3.40625 7.613281-7.613282v-33.746093c17.347656-3.539063 30.445313-18.914063 30.445313-37.292969v-20.296875c0-4.203125-3.40625-7.613281-7.613282-7.613281zm0 0" fill="#353535"></path><path d="m498.300781 512c-4.203125 0-7.613281-3.40625-7.613281-7.613281v-208.050781c0-4.203126 3.410156-7.609376 7.613281-7.609376s7.609375 3.40625 7.609375 7.609376v208.050781c0 4.207031-3.40625 7.613281-7.609375 7.613281zm0 0" fill="#353535"></path></svg>