<!-- icon666.com - MILLIONS vector ICONS FREE --><svg id="Capa_1" enable-background="new 0 0 512 512" viewBox="0 0 512 512" xmlns="http://www.w3.org/2000/svg"><g><g><path d="m477.74 128c0 110.93-89.93 200.86-200.86 200.86h-41.76c-110.93 0-200.86-89.93-200.86-200.86 44.26-76.52 126.99-128 221.74-128s177.48 51.48 221.74 128z" fill="#ffb9ff"></path><path d="m512 256c0 61.82-21.92 118.53-58.4 162.77l-197.6 82.83-197.6-82.83c-36.48-44.24-58.4-100.95-58.4-162.77 0-46.63 12.47-90.34 34.26-128 15.72 27.18 36.3 51.2 60.54 70.87 17.9 14.54 37.81 26.7 59.23 36.02 31.25 13.58 65.73 21.11 101.97 21.11s70.72-7.53 101.97-21.11c21.42-9.32 41.33-21.48 59.23-36.02 24.24-19.67 44.82-43.69 60.54-70.87 21.79 37.66 34.26 81.37 34.26 128z" fill="#ff90f6"></path></g><g><path d="m301.86 355.28-29.18 99.53h-177.96c-13.27-10.77-25.44-22.85-36.32-36.04v-219.9h197.6z" fill="#515165"></path><path d="m453.6 198.87v219.9c-10.88 13.19-23.05 25.27-36.32 36.04h-161.28v-255.94z" fill="#434353"></path><path d="m256 234.89 79.086 131.839-79.086 145.271c-4.18 0-8.34-.1-12.47-.3-56.28-2.7-107.79-23.57-148.81-56.89v-219.92z" fill="#606075"></path><path d="m417.28 234.89v219.92c-41.02 33.32-92.53 54.19-148.81 56.89-4.13.2-8.29.3-12.47.3v-277.11z" fill="#515165"></path><path d="m256 90.4 41.79 97.441-41.79 119.499c-59.91 0-108.47-48.57-108.47-108.47 0-59.91 48.56-108.47 108.47-108.47z" fill="#0094ff"></path><path d="m364.47 198.87c0 59.9-48.56 108.47-108.47 108.47v-216.94c59.91 0 108.47 48.56 108.47 108.47z" fill="#006eff"></path><path d="m256 131.769 36.12 70.973-36.12 58.115-45.86-6.167.655-10.564-10.606.604c-8.86-10.78-14.66-24.16-16.07-38.82l12.615-7.035-12.625-7.035c1.41-14.67 7.21-28.06 16.08-38.83l14.025 1.897-4.075-11.847c10.77-8.87 24.16-14.68 38.83-16.09z" fill="#f4f4f7"></path><path d="m321.671 198.86 6.219 7.05c-1.41 14.66-7.21 28.04-16.08 38.82l-9.95-.598v10.548l-45.86 6.177v-129.212l7.04-4.675c14.66 1.42 28.04 7.23 38.82 16.09l.45 9.51 9.5.44c8.87 10.77 14.68 24.16 16.09 38.83z" fill="#e2e2eb"></path><path d="m263.465 169.205 3.183 83.904h-21.306l3.183-83.904" fill="#434353"></path><g><g><path d="m263.04 126.97v25.6h-14.07v-25.6c2.31-.23 4.66-.34 7.03-.34 2.38 0 4.73.11 7.04.34z" fill="#434353"></path></g><g fill="#434353"><g><path d="m311.81 153.01-18.09 18.09-9.95-9.95 18.09-18.09c3.63 2.98 6.97 6.32 9.95 9.95z"></path><path d="m228.24 236.59-18.1 18.1c-.63-.51-1.25-1.04-1.86-1.58-2.92-2.57-5.62-5.37-8.09-8.38l18.09-18.09z"></path></g><g><path d="m328.24 198.86c0 2.38-.12 4.73-.35 7.05h-25.58v-14.07h25.59c.23 2.31.34 4.65.34 7.02z"></path><path d="m209.7 191.84v14.07h-25.58c-.23-2.32-.35-4.67-.35-7.05 0-2.37.11-4.71.34-7.02z"></path></g><g><path d="m311.81 244.73c-2.47 3.01-5.18 5.81-8.1 8.38-.61.54-1.22 1.06-1.85 1.57l-18.09-18.09 9.95-9.95z"></path><path d="m228.24 161.15-9.96 9.95-18.09-18.09c2.98-3.63 6.32-6.97 9.95-9.95z"></path></g></g></g></g><path d="m256 246.93 13.639 12.09-13.639 12.09c-16.33 0-31.38-5.41-43.47-14.54-.81-.61-1.61-1.24-2.39-1.88 14.85-5.18 30.35-7.76 45.86-7.76z" fill="#ffd0fc"></path><path d="m301.86 254.68c-.79.65-1.59 1.28-2.4 1.89-12.09 9.13-27.14 14.54-43.46 14.54v-24.18c15.51 0 31.01 2.58 45.86 7.75z" fill="#ffb9ff"></path><g><g><g fill="#515165"><path d="m131.154 382.333c-7.663 0-13.875 6.213-13.875 13.876 0 7.664 6.213 13.876 13.875 13.876 7.664 0 13.876-6.212 13.876-13.876 0-7.663-6.212-13.876-13.876-13.876z"></path><path d="m222.674 382.333c-7.663 0-13.876 6.213-13.876 13.876 0 7.664 6.212 13.876 13.876 13.876 7.663 0 13.875-6.212 13.875-13.876 0-7.663-6.212-13.876-13.875-13.876z"></path><path d="m195.7 385.012c7.663 0 13.876-6.213 13.876-13.876 0-7.664-6.213-13.876-13.876-13.876-7.664 0-13.876 6.212-13.876 13.876.001 7.664 6.213 13.876 13.876 13.876z"></path><path d="m158.128 385.012c7.664 0 13.876-6.213 13.876-13.876 0-7.664-6.212-13.876-13.876-13.876-7.663 0-13.876 6.212-13.876 13.876s6.212 13.876 13.876 13.876z"></path><path d="m191.543 391.065c-4.04-4.04-9.342-6.053-14.629-6.053-5.288 0-10.589 2.013-14.629 6.053l-13.113 13.127c-10.915 10.901-6.521 29.642 8.208 34.277 6.337 1.999 12.943 2.991 19.534 2.991s13.198-.992 19.534-2.991c14.729-4.635 19.123-23.376 8.208-34.277z"></path></g></g><g><g fill="#434353"><path d="m289.326 382.333c-7.663 0-13.875 6.213-13.875 13.876 0 7.664 6.213 13.876 13.875 13.876 7.664 0 13.876-6.212 13.876-13.876 0-7.663-6.212-13.876-13.876-13.876z"></path><path d="m380.846 382.333c-7.663 0-13.876 6.213-13.876 13.876 0 7.664 6.212 13.876 13.876 13.876 7.663 0 13.875-6.212 13.875-13.876.001-7.663-6.212-13.876-13.875-13.876z"></path><path d="m353.873 385.012c7.663 0 13.876-6.213 13.876-13.876 0-7.664-6.213-13.876-13.876-13.876-7.664 0-13.876 6.212-13.876 13.876s6.212 13.876 13.876 13.876z"></path><path d="m316.3 385.012c7.664 0 13.876-6.213 13.876-13.876 0-7.664-6.212-13.876-13.876-13.876-7.663 0-13.876 6.212-13.876 13.876s6.212 13.876 13.876 13.876z"></path><path d="m349.715 391.065c-4.04-4.04-9.342-6.053-14.629-6.053-5.288 0-10.589 2.013-14.629 6.053l-13.113 13.127c-10.915 10.901-6.521 29.642 8.208 34.277 6.337 1.999 12.943 2.991 19.534 2.991 6.592 0 13.198-.992 19.534-2.991 14.729-4.635 19.123-23.376 8.208-34.277z"></path></g></g></g></g></svg>