<!-- icon666.com - MILLIONS vector ICONS FREE --><svg id="Capa_1" enable-background="new 0 0 512 512" viewBox="0 0 512 512" xmlns="http://www.w3.org/2000/svg"><g><path d="m512 256c0 74.51-31.83 141.58-82.64 188.37-45.6 41.98-106.49 20.169-173.36 20.169s-127.76 21.811-173.36-20.169c-50.81-46.79-82.64-113.86-82.64-188.37 0-141.38 114.62-256 256-256s256 114.62 256 256z" fill="#a9dd45"></path><g><path d="m326.308 168.182v301.055c-21.862 8.249-45.56 12.763-70.308 12.763-11.129 0-22.04-.911-32.671-2.669-13.013-2.14-25.605-5.557-37.637-10.094v-301.055z" fill="#ce6219"></path><path d="m385.737 70.651c-1.543-19.957-17.782-35.968-37.762-37.245-6.774-.433-13.221.806-18.968 3.353-1.901-20.588-19.273-36.759-40.355-36.759-13.381 0-25.271 6.515-32.653 16.543-7.382-10.028-19.273-16.543-32.653-16.543-21.082 0-38.454 16.171-40.355 36.759-4.995-2.212-10.522-3.436-16.323-3.436-22.344 0-40.529 18.185-40.529 40.537 0 15.524 8.773 29.034 21.614 35.846 7.245 3.839 11.807 11.32 11.662 19.523 0 .266-.008.525-.008.791-.076 13.683 4.251 26.409 11.629 36.904 3.417 4.86 2.917 11.365-1.019 15.816-5.138 5.81-8.261 13.439-8.261 21.786 0 19.087 16.322 34.429 35.731 32.818 15.89-1.319 28.689-14.117 30.02-30.006.364-4.347-.126-8.519-1.311-12.406h61.855c17.82 0 33.953-7.222 45.638-18.9 11.678-11.678 18.9-27.81 18.9-45.631 0-.426-.008-.851-.015-1.27-.152-8.142 4.402-15.593 11.609-19.394 13.754-7.262 22.854-22.208 21.554-39.086z" fill="#ce6219"></path><path d="m185.692 469.237v-233.036c-13.799-3.922-23.931-16.639-23.931-31.675 0-8.351 3.121-15.978 8.265-21.791 3.938-4.444 4.428-10.958 1.012-15.814-7.378-10.491-11.705-23.215-11.627-36.905 0-.265.008-.521.008-.786.14-8.203-4.421-15.682-11.666-19.527-13.612-7.222-22.655-21.97-21.519-38.664 1.346-19.737 17.059-35.808 36.765-37.551 5.565-.498 10.942.148 15.908 1.728-16.39 5.199-28.29 20.554-28.29 38.64 0 15.526 8.771 29.037 21.612 35.847 7.246 3.845 11.806 11.324 11.658 19.527 0 .265-.008.521-.008.786-.07 13.69 4.249 26.414 11.635 36.905 3.417 4.856 2.911 11.37-1.02 15.814-5.136 5.814-8.265 13.441-8.265 21.791 0 6.063 1.65 11.744 4.514 16.624 5.401 9.199 16.865 11.44 25.301 6.833 3.238-1.767 7.191.669 7.191 4.358l.093 246.989c-13.012-2.14-25.604-5.556-37.636-10.093z" fill="#ba530d"></path><path d="m307.835 102.679c-28.629-28.629-75.046-28.629-103.675 0-14.987 14.987-14.987 39.285 0 54.271 12.418 12.418 31.225 14.539 45.833 6.376 3.717-2.077 8.291-2.077 12.008 0 14.608 8.163 33.415 6.042 45.833-6.376 14.988-14.987 14.988-39.285.001-54.271z" fill="#ffe0a7"></path><path d="m244.117 165.983c-4.143 1.467-8.483 2.201-12.823 2.201-9.821 0-19.642-3.742-27.134-11.234-7.491-7.498-11.24-17.319-11.24-27.14s3.749-19.642 11.24-27.133c8.11-8.103 17.639-13.916 27.792-17.428-2.846 2.187-5.576 4.585-8.184 7.193-8.558 8.558-12.843 19.785-12.843 31.005 0 11.227 4.286 22.447 12.843 31.012 5.828 5.826 12.891 9.67 20.349 11.524z" fill="#fcd290"></path><g fill="#ffe0a7"><circle cx="223.342" cy="40.532" r="25.33"></circle><circle cx="166.672" cy="73.861" r="25.33"></circle><circle cx="288.653" cy="40.532" r="25.33"></circle><circle cx="345.324" cy="73.861" r="25.33"></circle></g><path d="m232.839 64.015c-2.934 1.194-6.143 1.847-9.503 1.847-13.989 0-25.324-11.343-25.324-25.332s11.336-25.332 25.324-25.332c3.36 0 6.569.654 9.503 1.847-9.275 3.756-15.821 12.856-15.821 23.484 0 10.63 6.546 19.73 15.821 23.486z" fill="#fcd290"></path><path d="m176.169 97.345c-2.935 1.194-6.143 1.847-9.503 1.847-13.989 0-25.324-11.343-25.324-25.332s11.336-25.332 25.324-25.332c3.36 0 6.569.654 9.503 1.847-9.275 3.756-15.821 12.856-15.821 23.484 0 10.63 6.546 19.73 15.821 23.486z" fill="#fcd290"></path><circle cx="194.692" cy="204.527" fill="#ffe0a7" r="20.58"></circle><path d="m202.409 223.608c-2.384.97-4.991 1.501-7.721 1.501-11.365 0-20.575-9.216-20.575-20.581s9.21-20.581 20.575-20.581c2.73 0 5.337.531 7.721 1.501-7.536 3.051-12.854 10.445-12.854 19.08s5.318 16.028 12.854 19.08z" fill="#fcd290"></path><path d="m298.153 64.015c-2.934 1.194-6.143 1.847-9.503 1.847-13.989 0-25.332-11.343-25.332-25.332s11.343-25.332 25.332-25.332c3.36 0 6.569.654 9.503 1.847-9.283 3.756-15.828 12.856-15.828 23.484-.001 10.63 6.545 19.73 15.828 23.486z" fill="#fcd290"></path><path d="m354.823 97.345c-2.934 1.194-6.143 1.847-9.503 1.847-13.989 0-25.332-11.343-25.332-25.332s11.343-25.332 25.332-25.332c3.36 0 6.569.654 9.503 1.847-9.283 3.756-15.829 12.856-15.829 23.484 0 10.63 6.546 19.73 15.829 23.486z" fill="#fcd290"></path></g><path d="m429.36 234v210.37c-9.74 8.97-20.18 17.19-31.23 24.58-4.009 2.684-20.511-17.598-24.677-15.141-3.129 1.845 6.11 26.479 2.897 28.191-35.88 19.15-76.85 30-120.35 30h-140.17c-18.33 0-33.19-14.86-33.19-33.19v-244.81c0-18.33 14.86-33.19 33.19-33.19h280.34c18.33 0 33.19 14.86 33.19 33.19z" fill="#fff9f1"></path><path d="m134.846 511.999h-19.02c-18.33 0-33.19-14.86-33.19-33.19v-244.81c0-18.33 14.86-33.19 33.19-33.19h19.02c-18.33 0-33.19 14.86-33.19 33.19v244.81c0 18.331 14.86 33.19 33.19 33.19z" fill="#f9e9d7"></path><path d="m399.36 250.78v211.24c0 2.44-.44 4.77-1.23 6.93-7.02 4.7-14.29 9.06-21.78 13.05h-86.33l-34.02-17.461-34.02 17.461h-89.37c-11.03 0-19.97-8.94-19.97-19.98v-211.24c0-11.03 8.94-19.97 19.97-19.97h89.37l41.338 38.593 26.702-38.593h89.37c11.03 0 19.97 8.94 19.97 19.97z" fill="#225b77"></path><path d="m157.94 482h-25.33c-11.03 0-19.97-8.94-19.97-19.98v-211.24c0-11.03 8.94-19.97 19.97-19.97h25.33c-11.03 0-19.97 8.94-19.97 19.97v211.24c0 11.04 8.94 19.98 19.97 19.98z" fill="#174c60"></path><g><path d="m297.93 443.49c-4.6 1.12-7.91 5.14-7.91 9.87v28.64h-68.04v-28.64c0-4.74-3.32-8.75-7.92-9.87-17.98-4.38-31.17-21.01-30.23-40.55.21-4.3 1.12-8.42 2.61-12.26 5.49-14.16 18.92-24.49 34.74-25.4 4.91-.28 9.63.34 14.02 1.7 5.27 1.62 10.08 4.32 14.17 7.83 3.8 3.28 9.46 3.28 13.27.01 7.48-6.45 17.39-10.14 28.18-9.53 20.11 1.13 36.36 17.52 37.34 37.65.96 19.54-12.23 36.17-30.23 40.55z" fill="#479dbf"></path><path d="m242.74 453.36v28.64h-20.76v-28.63c0-4.74-3.32-8.76-7.92-9.87-17.99-4.38-31.18-21.02-30.23-40.56.21-4.3 1.12-8.42 2.61-12.25v-.01c5.49-14.16 18.92-24.5 34.74-25.39 4.7-.27 9.23.28 13.48 1.53-1.23.42-2.43.94-3.59 1.53-11.52 5.79-19.8 19.08-20.43 34.59-.8 19.55 10.3 36.17 25.43 40.56 3.89 1.11 6.67 5.13 6.67 9.86z" fill="#3889a3"></path></g><g><path d="m328.16 311.34c-.98 20.12-17.23 36.51-37.34 37.65-10.79.61-20.7-3.09-28.18-9.53-3.81-3.28-9.47-3.27-13.27 0-4.09 3.51-8.9 6.22-14.17 7.84-4.39 1.36-9.11 1.97-14.02 1.7-15.82-.91-29.25-11.24-34.74-25.4-1.49-3.84-2.4-7.97-2.61-12.26-.94-19.54 12.25-36.18 30.23-40.56 4.6-1.12 7.92-5.13 7.92-9.86v-30.11h68.04v30.11c0 4.73 3.31 8.74 7.91 9.86 18 4.38 31.19 21.02 30.23 40.56z" fill="#479dbf"></path><path d="m242.74 230.81v30.11c0 4.73-2.78 8.74-6.67 9.86-15.13 4.38-26.23 21.01-25.43 40.56.63 15.51 8.91 28.79 20.43 34.59 1.16.59 2.36 1.1 3.59 1.53-4.25 1.25-8.78 1.79-13.48 1.52-15.82-.88-29.25-11.22-34.74-25.38v-.01c-1.49-3.83-2.4-7.96-2.61-12.25-.95-19.54 12.24-36.18 30.23-40.56 4.6-1.12 7.92-5.14 7.92-9.87v-30.1z" fill="#3889a3"></path></g></g></svg>