<!-- icon666.com - MILLIONS vector ICONS FREE --><svg id="Capa_1" enable-background="new 0 0 512 512" viewBox="0 0 512 512" xmlns="http://www.w3.org/2000/svg"><circle cx="202.831" cy="152.996" r="13.135"></circle><circle cx="309.17" cy="152.996" r="13.135"></circle><path d="m420.391 220.711h-73.638c10.017-14.434 15.531-31.702 15.531-49.633v-43.831c4.537-3.786 8.039-8.657 10.194-14.22l14.29-36.906c4.734-12.225 6.16-25.534 4.125-38.488l-2.14-13.612c-1.59-10.119-8.244-18.369-17.796-22.068-9.55-3.696-20.026-2.081-28.018 4.329l-10.749 8.621c-10.228 8.204-18.137 19.002-22.872 31.228l-6.872 17.746h-92.895l-6.872-17.746c-4.733-12.225-12.642-23.024-22.871-31.228l-10.749-8.621c-7.991-6.41-18.464-8.026-28.018-4.329-9.552 3.699-16.206 11.949-17.796 22.068l-2.14 13.612c-2.036 12.953-.61 26.262 4.124 38.488l14.291 36.906c2.165 5.591 5.663 10.418 10.194 14.194v43.857c0 17.931 5.514 35.2 15.531 49.633h-73.636c-18.348 0-33.275 14.927-33.275 33.275v159.558c0 18.348 14.927 33.275 33.275 33.275h57.217v10.24c-7.87 4.616-12.866 13.092-12.866 22.507v10.703c0 .032 0 .064.001.096-.001.032-.001.064-.001.097 0 11.876 9.661 21.537 21.537 21.537 4.362 0 8.522-1.297 12.03-3.673 3.508 2.375 7.669 3.673 12.031 3.673 4.471 0 8.706-1.346 12.251-3.811 3.546 2.465 7.78 3.811 12.251 3.811 11.876 0 21.537-9.661 21.537-21.537 0-.032 0-.065-.001-.097.001-.032.001-.064.001-.096v-10.703c0-9.414-4.996-17.891-12.865-22.507v-10.24h82.537v10.24c-7.87 4.616-12.866 13.093-12.866 22.507v10.703c0 .032 0 .064.001.096-.001.032-.001.065-.001.097 0 11.876 9.662 21.537 21.538 21.537 4.361 0 8.521-1.297 12.029-3.673 3.507 2.376 7.668 3.674 12.03 3.674 4.471 0 8.706-1.346 12.251-3.812 3.546 2.466 7.781 3.812 12.251 3.812 11.876 0 21.538-9.661 21.538-21.537 0-.032 0-.065-.001-.097.001-.032.001-.064.001-.096v-10.703c0-9.414-4.996-17.891-12.866-22.507v-10.24h57.216c18.348 0 33.275-14.927 33.275-33.275v-159.559c.001-18.347-14.927-33.275-33.274-33.275zm-97.139-169.186c3.785-9.775 10.109-18.409 18.286-24.968l10.749-8.621c3.787-3.037 8.749-3.804 13.275-2.051 4.526 1.752 7.678 5.661 8.432 10.456l2.14 13.611c1.627 10.357.487 20.998-3.299 30.773l-12.65 32.669c-5.591-19.569-21.868-34.663-42.096-38.536zm-158.594 119.553v-46.253c.141-.823.133-1.657 0-2.469v-4.03c0-9.036 2.968-17.538 8.581-24.588 2.57-3.228 2.037-7.928-1.191-10.498s-7.926-2.035-10.498 1.191c-4.482 5.628-7.77 12.106-9.73 18.978l-12.656-32.684c-3.786-9.776-4.926-20.417-3.298-30.772l2.14-13.612c.754-4.795 3.906-8.704 8.432-10.456 4.523-1.753 9.488-.987 13.275 2.051l10.749 8.621c8.179 6.56 14.501 15.193 18.285 24.968l5.164 13.336c-.755.144-1.511.287-2.258.463-4.016.945-6.506 4.968-5.561 8.983.945 4.017 4.974 6.503 8.983 5.561 2.959-.696 6.017-1.05 9.091-1.05h103.668c21.785 0 39.508 17.723 39.508 39.508v52.752c0 21.003-9.122 40.916-25.028 54.632l-21.844 18.838c-25.353 21.865-63.589 21.865-88.942 0l-21.844-18.838c-15.904-13.716-25.026-33.628-25.026-54.632zm170.532 227.001c1.857 1.854 4.322 2.875 6.942 2.875.025.004.072 0 .109-.001h.004c1.741.012 3.354.72 4.544 1.997 1.197 1.286 1.788 2.971 1.662 4.743-.216 3.048-2.776 5.586-5.828 5.779-2.141.137-4.111-.761-5.404-2.457-1.615-2.121-4.167-3.386-6.829-3.388-.001 0-.002 0-.004 0-2.659 0-5.212 1.265-6.831 3.385-1.296 1.698-3.269 2.588-5.404 2.46-3.053-.193-5.614-2.731-5.83-5.779-.126-1.772.464-3.457 1.661-4.743 1.2-1.288 2.829-1.997 4.548-1.997.037.001.077.005.109.001 2.623 0 5.089-1.02 6.945-2.874 1.859-1.857 2.882-4.326 2.882-6.952v-22.898c0-2.623-1.023-5.092-2.882-6.949-1.857-1.856-4.323-2.878-6.944-2.878-.015.002-.062 0-.107.001-1.744-.01-3.359-.718-4.55-1.997-1.197-1.286-1.788-2.97-1.662-4.742.216-3.048 2.776-5.586 5.828-5.779 2.147-.139 4.112.761 5.409 2.463 1.617 2.118 4.169 3.381 6.829 3.381h.004c2.661-.002 5.214-1.267 6.827-3.385 1.294-1.696 3.245-2.59 5.407-2.459 3.05.193 5.611 2.73 5.827 5.778.126 1.772-.464 3.457-1.661 4.743-1.2 1.288-2.829 1.997-4.548 1.997-.037-.001-.072.002-.109-.001-2.623 0-5.09 1.021-6.946 2.876-1.857 1.856-2.88 4.325-2.88 6.951l-.001 22.898c-.002 2.625 1.022 5.093 2.883 6.951zm-17.535-67.115c-.15.006-.299 0-.449.01-9.846.623-17.917 8.038-19.541 17.599-10.31 6.294-21.938 10.107-34.099 11.229v-20.28c31.82-2.777 58.499-22.877 69.697-50.367-.542 15.282-5.904 29.642-15.608 41.809zm-130.916 67.113c1.857 1.856 4.323 2.877 6.943 2.877.024.004.072 0 .109-.001h.004c1.742.012 3.354.72 4.545 1.997 1.197 1.286 1.788 2.971 1.661 4.743-.216 3.048-2.776 5.586-5.828 5.779-2.149.137-4.111-.761-5.404-2.457-1.616-2.121-4.17-3.388-6.832-3.388s-5.217 1.267-6.829 3.384c-1.297 1.699-3.265 2.589-5.406 2.461-3.052-.193-5.614-2.731-5.83-5.779-.126-1.772.464-3.457 1.661-4.743 1.2-1.288 2.829-1.997 4.548-1.997.037.001.076.005.109.001 2.623 0 5.089-1.02 6.945-2.874 1.859-1.857 2.882-4.326 2.882-6.952v-22.898c0-2.623-1.023-5.092-2.882-6.949-1.857-1.856-4.323-2.878-6.944-2.878-.016-.001-.062 0-.107.001-1.744-.01-3.359-.718-4.55-1.997-1.197-1.286-1.788-2.971-1.662-4.741.216-3.049 2.776-5.587 5.828-5.78 2.147-.134 4.112.762 5.405 2.456 1.616 2.121 4.17 3.388 6.832 3.388s5.217-1.267 6.83-3.384c1.297-1.698 3.25-2.598 5.408-2.46 3.05.193 5.611 2.73 5.827 5.778.126 1.773-.464 3.457-1.661 4.743-1.199 1.288-2.829 1.997-4.548 1.997-.037-.001-.072.002-.109-.001-2.623 0-5.09 1.021-6.946 2.876-1.857 1.856-2.88 4.325-2.88 6.951v22.898c-.002 2.624 1.022 5.092 2.881 6.949zm8.376-67.103c-.262-.016-.522-.01-.784-.016-9.566-12.036-15.029-26.689-15.59-41.798 11.222 27.541 37.983 47.663 69.884 50.376v20.283c-12.086-1.088-23.659-4.835-33.934-11.033-1.539-9.665-9.656-17.187-19.576-17.812zm-7.1-70.71c0-3.465.309-6.886.875-10.255.147-.243.297-.486.447-.727 4.895 28.657 29.223 50.786 59.288 53.931v21.327c-34.03-3.51-60.61-30.992-60.61-64.276zm21.156 1.263c13.74 9.385 30.051 14.491 46.829 14.491 16.742 0 33.02-5.084 46.742-14.431-7.771 14.17-22.484 24.368-39.617 26.61-1.032-2.89-3.785-4.961-7.029-4.961-3.255 0-6.015 2.084-7.039 4.988-17.368-2.179-32.14-12.403-39.886-26.697zm113.484-12.264c.158.254.309.511.464.766.563 3.365.867 6.78.867 10.235 0 33.221-26.481 60.66-60.42 64.252v-21.328c14.266-1.533 27.653-7.362 38.306-16.825 11.124-9.883 18.358-22.902 20.783-37.1zm-109.999 240.625c-.009.163-.012.328-.009.493.001.061.004.143.007.227-.077 3.57-3.006 6.451-6.594 6.451-2.083 0-4.001-.959-5.261-2.63-1.644-2.182-4.258-3.483-6.99-3.483s-5.346 1.302-6.989 3.481c-1.262 1.673-3.18 2.632-5.262 2.632-2.018 0-3.901-.916-5.161-2.513-1.669-2.114-4.173-3.327-6.868-3.327-2.696 0-5.2 1.213-6.867 3.325-1.263 1.598-3.145 2.514-5.163 2.514-3.588 0-6.516-2.88-6.594-6.449.003-.084.006-.165.007-.229.003-.164 0-.329-.009-.491v-10.324c0-4.848 3.099-9.115 7.711-10.618 3.075-1.002 5.155-3.869 5.155-7.103v-15.024h36.024v15.026c0 3.233 2.081 6.1 5.155 7.103 4.612 1.503 7.71 5.77 7.71 10.618v10.321zm148.444 0c-.009.163-.012.328-.009.493.001.061.004.143.007.227-.077 3.57-3.006 6.451-6.595 6.451-2.082 0-4-.959-5.264-2.636-1.645-2.178-4.257-3.478-6.987-3.478-.001 0-.003 0-.004 0-2.731.001-5.343 1.303-6.985 3.481-1.262 1.673-3.18 2.632-5.262 2.632-2.018 0-3.9-.916-5.165-2.517-1.669-2.112-4.171-3.322-6.865-3.322-.002 0-.003 0-.005 0-2.694.002-5.196 1.214-6.863 3.325-1.263 1.598-3.144 2.514-5.162 2.514-3.588 0-6.517-2.88-6.595-6.449.003-.084.006-.165.007-.229.003-.164 0-.328-.009-.491v-10.324c0-4.848 3.099-9.114 7.711-10.618 3.075-1.003 5.155-3.87 5.155-7.103v-15.024h36.024v15.026c0 3.233 2.081 6.1 5.155 7.103 4.612 1.504 7.711 5.77 7.711 10.618zm77.625-76.343c0 10.11-8.224 18.334-18.334 18.334h-328.782c-10.11 0-18.334-8.224-18.334-18.334v-159.559c0-10.11 8.224-18.334 18.334-18.334h85.529c-1.028 3.033-1.861 6.116-2.502 9.239-7.083 12.754-10.895 27.1-10.895 41.686 0 16.07 4.606 31.805 13.121 45.467-2.566-.861-5.307-1.248-8.105-1.071-10.533.666-19.04 9.106-19.789 19.634-.416 5.867 1.638 11.693 5.634 15.984 2.832 3.04 6.496 5.161 10.475 6.141v13.893c-3.98.98-7.645 3.102-10.476 6.142-3.997 4.291-6.049 10.116-5.633 15.986.749 10.526 9.256 18.965 19.791 19.632 4.741.296 9.352-.985 13.178-3.554 3.461 2.324 7.565 3.597 11.826 3.597.449 0 .902-.015 1.354-.043 10.535-.666 19.042-9.107 19.789-19.633.416-5.868-1.636-11.694-5.633-15.985-2.832-3.04-6.496-5.162-10.475-6.142v-13.893c3.98-.98 7.644-3.102 10.475-6.142.749-.804 1.43-1.662 2.038-2.563 13.628 7.258 28.917 11.076 44.689 11.076 15.879 0 31.244-3.862 44.93-11.204.631.949 1.337 1.851 2.121 2.693 2.826 3.033 6.479 5.152 10.475 6.134v13.9c-3.98.98-7.645 3.102-10.476 6.142-3.997 4.291-6.049 10.116-5.633 15.985.747 10.526 9.255 18.966 19.791 19.633 4.735.302 9.353-.984 13.178-3.553 3.46 2.323 7.565 3.596 11.825 3.596.449 0 .902-.015 1.354-.043 10.535-.666 19.042-9.107 19.789-19.634.416-5.868-1.638-11.695-5.635-15.985-2.832-3.04-6.495-5.161-10.474-6.141l.001-13.893c3.979-.98 7.644-3.102 10.475-6.142 3.997-4.291 6.049-10.116 5.633-15.985-.747-10.527-9.255-18.967-19.79-19.632-2.934-.185-5.82.24-8.501 1.198 8.563-13.692 13.197-29.493 13.197-45.594 0-14.853-3.746-29.061-10.913-41.82-.635-3.077-1.459-6.115-2.472-9.105h85.516c10.11 0 18.334 8.224 18.334 18.334z"></path><path d="m239.028 224.755c6.397-2.3 12.202-6.036 16.967-10.842 5.192 5.246 11.608 9.192 18.719 11.429.746.234 1.501.346 2.243.346 3.176 0 6.121-2.041 7.124-5.231 1.238-3.936-.949-8.13-4.885-9.367-6.338-1.994-11.852-6.018-15.726-11.421v-10.153c6.878.21 11.704-.363 11.704-8.302 0-10.59-8.585-19.174-19.174-19.174-10.59 0-19.174 8.585-19.174 19.174 0 7.939 4.826 8.513 11.704 8.302v10.132c-3.624 5.054-8.719 8.948-14.558 11.048-3.883 1.397-5.898 5.676-4.502 9.558 1.397 3.882 5.681 5.895 9.558 4.501z"></path></svg>