<!-- icon666.com - MILLIONS vector ICONS FREE --><svg id="Capa_1" enable-background="new 0 0 512.015 512.015" viewBox="0 0 512.015 512.015" xmlns="http://www.w3.org/2000/svg"><circle cx="302.53" cy="257.727" fill="#a0c8ff" r="120.773"></circle><path d="m408.453 315.792c-20.526 37.377-60.271 62.707-105.919 62.707-66.709 0-120.778-54.069-120.778-120.769 0-45.044 24.647-84.323 61.202-105.087l7.895 41.32c3.834 20.11 16.108 37.615 33.702 48.086z" fill="#eaf0f0"></path><path d="m148.5 499.704c0-9.478-1.808-24.23-5.316-33.037l-24.739-61.902-7.685-19.252c-.499-1.263-.982-2.541-1.309-3.85-.67-2.634-1.013-5.331-1.013-8.044v-95.791c0-12.253-6.734-22.915-16.726-28.496-4.708-2.666-10.148-4.162-15.931-4.162h-28.357c-9.244 0-17.662-5.347-21.606-13.718l-13.531-28.776c-4.412-9.4-2.26-20.561 5.331-27.623l28.184-26.267c2.822-2.634 5.051-5.799 6.563-9.26 1.496-3.476 2.307-7.249 2.307-11.115 0-12.455 8.277-23.414 20.281-26.797l54.996-15.526.733-73.78 65.191 64.614 22.479 20.889c11.161 10.382 18.722 24.037 21.574 39.002l10.928 57.147c3.835 20.109 16.103 37.615 33.702 48.09l217.458 129.422.006 128.229h-353.52z" fill="#eaf0f0"></path><path d="m408.453 315.792c-20.526 37.377-60.271 62.707-105.919 62.707-66.709 0-120.778-54.069-120.778-120.769 0-45.044 24.647-84.323 61.202-105.087l7.895 41.32c3.834 20.11 16.108 37.615 33.702 48.086z" fill="#89dd8e"></path><path d="m454.478 12.31v97.824c0 15.682-5.609 30.847-15.812 42.755l-34.245 39.964c-7.222-11.323-16.276-21.358-26.757-29.68l29.152-34.02c5.186-6.053 8.037-13.76 8.037-21.731v-95.112z" fill="#97a1b3"></path><path d="m507.127 362.882-85.601-50.946c7.558-16.524 11.776-34.883 11.776-54.209 0-23.146-6.052-44.902-16.646-63.782l29.603-34.548c11.748-13.711 18.219-31.206 18.219-49.262v-97.824c0-5.523-4.478-10-10-10s-10 4.477-10 10v97.824c0 13.286-4.761 26.159-13.406 36.248l-25.927 30.258c-4.094-5.177-8.568-10.031-13.398-14.532l22.663-26.448c6.734-7.859 10.443-17.888 10.443-28.238v-95.112c0-5.523-4.478-10-10-10s-10 4.477-10 10v95.112c0 5.581-2 10.987-5.631 15.225l-23.142 27.007c-20.97-14.317-46.298-22.701-73.55-22.701-18.557 0-36.219 3.894-52.225 10.894l-.556-2.905c-3.272-17.163-11.774-32.534-24.59-44.455l-22.36-20.777-65.077-64.503c-2.854-2.829-7.125-3.672-10.842-2.147-3.717 1.528-6.158 5.132-6.197 9.15l-.658 66.29-47.784 13.49c-16.231 4.574-27.568 19.551-27.568 36.421 0 2.452-.502 4.861-1.471 7.111-.97 2.221-2.431 4.279-4.216 5.947l-28.179 26.26c-10.811 10.057-13.854 25.808-7.569 39.2l13.534 28.782c5.568 11.819 17.6 19.457 30.652 19.457h28.356c3.89 0 7.694.99 11.055 2.893 7.156 3.997 11.603 11.571 11.603 19.765v3.277c0 5.523 4.478 10 10 10s10-4.477 10-10v-3.277c0-15.435-8.373-29.699-21.799-37.197-6.309-3.572-13.521-5.46-20.858-5.46h-28.357c-5.346 0-10.275-3.132-12.556-7.974l-13.528-28.767c-2.575-5.487-1.333-11.939 3.096-16.06l28.191-26.273c3.824-3.571 6.819-7.798 8.924-12.615 2.071-4.812 3.121-9.881 3.121-15.068 0-7.954 5.343-15.015 12.998-17.172l54.996-15.526c4.272-1.207 7.238-5.085 7.282-9.525l.498-50.121 48.386 47.958c.077.076.154.15.233.223l22.476 20.885c9.673 8.998 16.092 20.601 18.563 33.558l1.733 9.062c.017.115-11.124 7.623-18.959 14.859-26.299 24.288-41.12 59.314-41.12 95.112 0 46.008 26.247 89.678 65.51 113.27 13.301 7.992 28.538 13.202 43.81 15.733.136.028.273.046.41.068 6.853 1.113 13.88 1.701 21.043 1.701 42.993 0 85.569-23.012 109.3-59.06l85.069 50.63c1.604.954 3.365 1.408 5.104 1.408 3.41 0 6.732-1.745 8.603-4.887 2.824-4.745 1.267-10.882-3.48-13.707zm-204.597-215.928c61.08 0 110.772 49.692 110.772 110.772 0 15.592-3.245 30.438-9.083 43.908l-114.549-68.174c-15.13-9.006-25.698-24.085-28.995-41.376l-6.502-34.004c14.621-7.123 31.029-11.126 48.357-11.126zm-97.816 58.835 2.754 12.123c2.125 9.353 5.224 18.047 9.146 25.952l-24.356 24.356c-.326-3.455-.5-6.954-.5-10.493-.001-18.758 4.692-36.438 12.956-51.938zm-7.628 85.888 30.475-30.476c5.081 6.354 10.899 11.784 17.325 16.187l-37.317 37.317c-4.328-7.188-7.861-14.905-10.483-23.028zm22.458 39.338 42.791-42.791 20.772 12.74-46.053 46.053c-6.393-4.7-12.263-10.068-17.51-16.002zm143.87 19.203c-16.657 11.001-36.442 17.631-57.711 18.232l33.24-33.241zm-83.68 15.917c-8.761-1.84-17.145-4.715-25.016-8.497l45.921-45.921 20.772 12.74zm100.198-29.249-122.363-75.048c-14.803-9.484-25.667-26.654-30.598-48.357l-6.766-29.788c4.77-5.299 10.042-10.137 15.743-14.438l5.082 26.58c4.368 22.902 18.368 42.88 38.411 54.811l115.19 68.557c-4.283 6.396-9.215 12.32-14.699 17.683z"></path><path d="m120.06 381.838c-1.604-4.062-1.623-8.094-1.623-12.369 0-4.027-1.296-7.727-4.953-9.868-4.11-2.407-9.505-1.5-12.616 2.099-2.576 2.981-2.431 6.513-2.431 10.183 0 6.011.816 11.72 3.036 17.337l32.42 81.146c2.884 7.241 4.606 20.603 4.606 29.338 0 5.523 4.478 10 10 10s10-4.477 10-10c0-10.405-1.886-26.34-6.029-36.748z"></path><path d="m101.219 136.147c-2.994-4.567-9.349-5.752-13.86-2.76-4.548 3.017-5.764 9.332-2.76 13.86 3.016 4.546 9.332 5.764 13.859 2.76 4.543-3.014 5.773-9.335 2.761-13.86z"></path><path d="m397.796 394.073c-.975.13-24.147 3.343-47.46 17.709-22.028 13.574-48.287 39.847-48.287 87.921 0 5.523 4.478 10 10 10s10-4.477 10-10c0-30.955 12.862-54.693 38.23-70.554 19.717-12.328 39.975-15.227 40.155-15.251 5.475-.729 9.322-5.757 8.593-11.232-.728-5.474-5.759-9.318-11.231-8.593z"></path><path d="m100.119 331.677c3.04 4.515 9.325 5.791 13.87 2.77 4.546-3.022 5.762-9.342 2.76-13.87-3.014-4.545-9.335-5.762-13.859-2.76-4.542 3.014-5.786 9.331-2.771 13.86z"></path></svg>