<!-- icon666.com - MILLIONS vector ICONS FREE --><svg viewBox="0 0 480 480" xmlns="http://www.w3.org/2000/svg"><g fill="#78b9eb"><path d="m8 440h464v32h-464zm0 0"></path><path d="m48 360h64v32h-64zm0 0"></path><path d="m224 72h32v48h-32zm0 0"></path></g><path d="m472 432h-8v-40c0-4.417969-3.582031-8-8-8h-336v-24c0-4.417969-3.582031-8-8-8h-64c-4.417969 0-8 3.582031-8 8v24h-16c-4.417969 0-8 3.582031-8 8v40h-8c-4.417969 0-8 3.582031-8 8v32c0 4.417969 3.582031 8 8 8h464c4.417969 0 8-3.582031 8-8v-32c0-4.417969-3.582031-8-8-8zm-8 32h-448v-16h448zm-408-96h48v16h-48zm-24 32h416v32h-416zm0 0" fill="#1a6fb0"></path><path d="m29.65625 341.65625 210.34375-210.34375 210.34375 210.34375 11.3125-11.3125-202.894531-202.902344c3.132812-1.132812 5.226562-4.105468 5.238281-7.441406v-40h8c4.417969 0 8-3.582031 8-8v-24h16c4.417969 0 8-3.582031 8-8v-32c0-4.417969-3.582031-8-8-8h-112c-4.417969 0-8 3.582031-8 8v32c0 4.417969 3.582031 8 8 8h16v24c0 4.417969 3.582031 8 8 8h8v40c.011719 3.335938 2.105469 6.308594 5.238281 7.441406l-202.894531 202.902344zm218.34375-229.65625h-16v-32h16zm-32-48v-24c0-4.417969-3.582031-8-8-8h-16v-16h96v16h-16c-4.417969 0-8 3.582031-8 8v24zm0 0" fill="#1a6fb0"></path><path d="m245.65625 23.03125-5.65625 5.65625-5.65625-5.65625-11.3125 11.3125 5.65625 5.65625-5.65625 5.65625 11.3125 11.3125 5.65625-5.65625 5.65625 5.65625 11.3125-11.3125-5.65625-5.65625 5.65625-5.65625zm0 0" fill="#1a6fb0"></path></svg>